<?xml version="1.0" encoding="UTF-8" standalone="no"?>
<!DOCTYPE svg PUBLIC "-//W3C//DTD SVG 1.1//EN"
 "http://www.w3.org/Graphics/SVG/1.1/DTD/svg11.dtd">
<!-- Generated by graphviz version 2.30.1 (20201013.1554)
 -->
<!-- Title: computation graph Pages: 1 -->
<svg width="1503pt" height="2080pt"
 viewBox="0.00 0.00 1503.00 2080.00" xmlns="http://www.w3.org/2000/svg" xmlns:xlink="http://www.w3.org/1999/xlink">
<g id="graph0" class="graph" transform="scale(1 1) rotate(0) translate(4 2076)">
<title>computation graph</title>
<polygon fill="white" stroke="white" points="-4,5 -4,-2076 1500,-2076 1500,5 -4,5"/>
<!-- 0 -->
<g id="node1" class="node"><title>0</title>
<ellipse fill="none" stroke="black" cx="764" cy="-2013" rx="111.584" ry="58.8803"/>
<text text-anchor="middle" x="764" y="-2039.3" font-family="Times,serif" font-size="14.00">id:0</text>
<text text-anchor="middle" x="764" y="-2024.3" font-family="Times,serif" font-size="14.00">type:&lt;class &#39;Nodes.Root&#39;&gt;</text>
<text text-anchor="middle" x="764" y="-2009.3" font-family="Times,serif" font-size="14.00">area:[]</text>
<text text-anchor="middle" x="764" y="-1994.3" font-family="Times,serif" font-size="14.00">vars:[]</text>
<text text-anchor="middle" x="764" y="-1979.3" font-family="Times,serif" font-size="14.00">grad:False</text>
</g>
<!-- 2 -->
<g id="node3" class="node"><title>2</title>
<ellipse fill="none" stroke="black" cx="1039" cy="-1848" rx="113.206" ry="69.0935"/>
<text text-anchor="middle" x="1039" y="-1881.8" font-family="Times,serif" font-size="14.00">id:2</text>
<text text-anchor="middle" x="1039" y="-1866.8" font-family="Times,serif" font-size="14.00">type:&lt;class &#39;Nodes.Ones&#39;&gt;</text>
<text text-anchor="middle" x="1039" y="-1851.8" font-family="Times,serif" font-size="14.00">area:[0]</text>
<text text-anchor="middle" x="1039" y="-1836.8" font-family="Times,serif" font-size="14.00">vars:[&#39;_2&#39;]</text>
<text text-anchor="middle" x="1039" y="-1821.8" font-family="Times,serif" font-size="14.00">grad:True</text>
<text text-anchor="middle" x="1039" y="-1806.8" font-family="Times,serif" font-size="14.00">data_shape:(3, 3)</text>
</g>
<!-- 0&#45;&gt;2 -->
<g id="edge3" class="edge"><title>0&#45;&gt;2</title>
<path fill="none" stroke="green" d="M837.334,-1968.53C871.802,-1948.1 913.206,-1923.56 949.505,-1902.05"/>
<polygon fill="green" stroke="green" points="951.313,-1905.04 958.13,-1896.93 947.743,-1899.02 951.313,-1905.04"/>
</g>
<!-- 1 -->
<g id="node2" class="node"><title>1</title>
<ellipse fill="none" stroke="black" cx="764" cy="-1848" rx="143.314" ry="58.8803"/>
<text text-anchor="middle" x="764" y="-1874.3" font-family="Times,serif" font-size="14.00">id:1</text>
<text text-anchor="middle" x="764" y="-1859.3" font-family="Times,serif" font-size="14.00">type:&lt;class &#39;Nodes.CreateTensor&#39;&gt;</text>
<text text-anchor="middle" x="764" y="-1844.3" font-family="Times,serif" font-size="14.00">area:[0]</text>
<text text-anchor="middle" x="764" y="-1829.3" font-family="Times,serif" font-size="14.00">vars:[&#39;a&#39;]</text>
<text text-anchor="middle" x="764" y="-1814.3" font-family="Times,serif" font-size="14.00">grad:True</text>
</g>
<!-- 0&#45;&gt;1 -->
<g id="edge4" class="edge"><title>0&#45;&gt;1</title>
<path fill="none" stroke="green" d="M764,-1954.07C764,-1942.06 764,-1929.31 764,-1916.97"/>
<polygon fill="green" stroke="green" points="767.5,-1916.74 764,-1906.74 760.5,-1916.74 767.5,-1916.74"/>
</g>
<!-- 5 -->
<g id="node6" class="node"><title>5</title>
<ellipse fill="none" stroke="black" cx="487" cy="-1848" rx="114.888" ry="69.0935"/>
<text text-anchor="middle" x="487" y="-1881.8" font-family="Times,serif" font-size="14.00">id:5</text>
<text text-anchor="middle" x="487" y="-1866.8" font-family="Times,serif" font-size="14.00">type:&lt;class &#39;Nodes.Zeros&#39;&gt;</text>
<text text-anchor="middle" x="487" y="-1851.8" font-family="Times,serif" font-size="14.00">area:[0]</text>
<text text-anchor="middle" x="487" y="-1836.8" font-family="Times,serif" font-size="14.00">vars:[&#39;_5&#39;]</text>
<text text-anchor="middle" x="487" y="-1821.8" font-family="Times,serif" font-size="14.00">grad:True</text>
<text text-anchor="middle" x="487" y="-1806.8" font-family="Times,serif" font-size="14.00">data_shape:(3, 3)</text>
</g>
<!-- 0&#45;&gt;5 -->
<g id="edge7" class="edge"><title>0&#45;&gt;5</title>
<path fill="none" stroke="green" d="M690.496,-1968.75C655.775,-1948.32 614.005,-1923.74 577.367,-1902.18"/>
<polygon fill="green" stroke="green" points="579.054,-1899.11 568.661,-1897.05 575.504,-1905.14 579.054,-1899.11"/>
</g>
<!-- 4 -->
<g id="node5" class="node"><title>4</title>
<ellipse fill="none" stroke="black" cx="210" cy="-1848" rx="143.314" ry="58.8803"/>
<text text-anchor="middle" x="210" y="-1874.3" font-family="Times,serif" font-size="14.00">id:4</text>
<text text-anchor="middle" x="210" y="-1859.3" font-family="Times,serif" font-size="14.00">type:&lt;class &#39;Nodes.CreateTensor&#39;&gt;</text>
<text text-anchor="middle" x="210" y="-1844.3" font-family="Times,serif" font-size="14.00">area:[0]</text>
<text text-anchor="middle" x="210" y="-1829.3" font-family="Times,serif" font-size="14.00">vars:[&#39;b&#39;]</text>
<text text-anchor="middle" x="210" y="-1814.3" font-family="Times,serif" font-size="14.00">grad:True</text>
</g>
<!-- 0&#45;&gt;4 -->
<g id="edge8" class="edge"><title>0&#45;&gt;4</title>
<path fill="none" stroke="green" d="M659.011,-1993.17C577.195,-1977.12 461.359,-1951.36 363,-1918 345.77,-1912.16 327.844,-1905.06 310.586,-1897.67"/>
<polygon fill="green" stroke="green" points="311.641,-1894.31 301.075,-1893.54 308.853,-1900.73 311.641,-1894.31"/>
</g>
<!-- 8 -->
<g id="node9" class="node"><title>8</title>
<ellipse fill="none" stroke="black" cx="1180" cy="-1179" rx="106.099" ry="58.8803"/>
<text text-anchor="middle" x="1180" y="-1205.3" font-family="Times,serif" font-size="14.00">id:8</text>
<text text-anchor="middle" x="1180" y="-1190.3" font-family="Times,serif" font-size="14.00">type:&lt;class &#39;Nodes.Val&#39;&gt;</text>
<text text-anchor="middle" x="1180" y="-1175.3" font-family="Times,serif" font-size="14.00">area:[0]</text>
<text text-anchor="middle" x="1180" y="-1160.3" font-family="Times,serif" font-size="14.00">vars:[&#39;_8&#39;]</text>
<text text-anchor="middle" x="1180" y="-1145.3" font-family="Times,serif" font-size="14.00">grad:False</text>
</g>
<!-- 0&#45;&gt;8 -->
<g id="edge18" class="edge"><title>0&#45;&gt;8</title>
<path fill="none" stroke="green" d="M873.122,-2000.57C977.426,-1987.21 1124.11,-1961.24 1161,-1918 1197.88,-1874.77 1180,-1719.82 1180,-1663 1180,-1663 1180,-1663 1180,-1486 1180,-1404.1 1180,-1309.87 1180,-1247.86"/>
<polygon fill="green" stroke="green" points="1183.5,-1247.81 1180,-1237.81 1176.5,-1247.81 1183.5,-1247.81"/>
</g>
<!-- 16 -->
<g id="node17" class="node"><title>16</title>
<ellipse fill="none" stroke="black" cx="106" cy="-1662" rx="106.099" ry="58.8803"/>
<text text-anchor="middle" x="106" y="-1688.3" font-family="Times,serif" font-size="14.00">id:16</text>
<text text-anchor="middle" x="106" y="-1673.3" font-family="Times,serif" font-size="14.00">type:&lt;class &#39;Nodes.Val&#39;&gt;</text>
<text text-anchor="middle" x="106" y="-1658.3" font-family="Times,serif" font-size="14.00">area:[0]</text>
<text text-anchor="middle" x="106" y="-1643.3" font-family="Times,serif" font-size="14.00">vars:[&#39;_16&#39;]</text>
<text text-anchor="middle" x="106" y="-1628.3" font-family="Times,serif" font-size="14.00">grad:False</text>
</g>
<!-- 0&#45;&gt;16 -->
<g id="edge21" class="edge"><title>0&#45;&gt;16</title>
<path fill="none" stroke="green" d="M653.488,-2005.2C464.478,-1992.43 95.6498,-1962.13 57,-1918 11.0441,-1865.53 38.5372,-1783.34 67.4831,-1726.52"/>
<polygon fill="green" stroke="green" points="70.6008,-1728.11 72.1302,-1717.62 64.3968,-1724.86 70.6008,-1728.11"/>
</g>
<!-- 17 -->
<g id="node18" class="node"><title>17</title>
<ellipse fill="none" stroke="black" cx="1352" cy="-1333" rx="143.314" ry="58.8803"/>
<text text-anchor="middle" x="1352" y="-1359.3" font-family="Times,serif" font-size="14.00">id:17</text>
<text text-anchor="middle" x="1352" y="-1344.3" font-family="Times,serif" font-size="14.00">type:&lt;class &#39;Nodes.CreateTensor&#39;&gt;</text>
<text text-anchor="middle" x="1352" y="-1329.3" font-family="Times,serif" font-size="14.00">area:[0]</text>
<text text-anchor="middle" x="1352" y="-1314.3" font-family="Times,serif" font-size="14.00">vars:[&#39;c&#39;]</text>
<text text-anchor="middle" x="1352" y="-1299.3" font-family="Times,serif" font-size="14.00">grad:False</text>
</g>
<!-- 0&#45;&gt;17 -->
<g id="edge22" class="edge"><title>0&#45;&gt;17</title>
<path fill="none" stroke="green" d="M873.106,-2001.05C984.911,-1987.63 1148.62,-1961.21 1194,-1918 1338.87,-1780.06 1355.64,-1524.14 1354.72,-1402.13"/>
<polygon fill="green" stroke="green" points="1358.22,-1401.77 1354.6,-1391.81 1351.22,-1401.85 1358.22,-1401.77"/>
</g>
<!-- 3 -->
<g id="node4" class="node"><title>3</title>
<ellipse fill="none" stroke="black" cx="774" cy="-1662" rx="138.951" ry="79.8063"/>
<text text-anchor="middle" x="774" y="-1703.3" font-family="Times,serif" font-size="14.00">id:3</text>
<text text-anchor="middle" x="774" y="-1688.3" font-family="Times,serif" font-size="14.00">type:&lt;class &#39;Nodes.Assignment&#39;&gt;</text>
<text text-anchor="middle" x="774" y="-1673.3" font-family="Times,serif" font-size="14.00">area:[0]</text>
<text text-anchor="middle" x="774" y="-1658.3" font-family="Times,serif" font-size="14.00">vars:[&#39;a&#39;, &#39;_2&#39;]</text>
<text text-anchor="middle" x="774" y="-1643.3" font-family="Times,serif" font-size="14.00">grad:True</text>
<text text-anchor="middle" x="774" y="-1628.3" font-family="Times,serif" font-size="14.00">slice:None</text>
<text text-anchor="middle" x="774" y="-1613.3" font-family="Times,serif" font-size="14.00">update:False</text>
</g>
<!-- 1&#45;&gt;3 -->
<g id="edge1" class="edge"><title>1&#45;&gt;3</title>
<path fill="none" stroke="green" d="M767.137,-1789.29C767.778,-1777.48 768.468,-1764.79 769.154,-1752.17"/>
<polygon fill="green" stroke="green" points="772.654,-1752.26 769.702,-1742.09 765.664,-1751.88 772.654,-1752.26"/>
</g>
<!-- 2&#45;&gt;3 -->
<g id="edge2" class="edge"><title>2&#45;&gt;3</title>
<path fill="none" stroke="green" d="M964.83,-1795.5C935.594,-1775.2 901.625,-1751.61 870.518,-1730.02"/>
<polygon fill="green" stroke="green" points="872.463,-1727.11 862.253,-1724.28 868.471,-1732.86 872.463,-1727.11"/>
</g>
<!-- 13 -->
<g id="node14" class="node"><title>13</title>
<ellipse fill="none" stroke="black" cx="758" cy="-1487" rx="106.161" ry="58.8803"/>
<text text-anchor="middle" x="758" y="-1513.3" font-family="Times,serif" font-size="14.00">id:13</text>
<text text-anchor="middle" x="758" y="-1498.3" font-family="Times,serif" font-size="14.00">type:&lt;class &#39;Nodes.Var&#39;&gt;</text>
<text text-anchor="middle" x="758" y="-1483.3" font-family="Times,serif" font-size="14.00">area:[0]</text>
<text text-anchor="middle" x="758" y="-1468.3" font-family="Times,serif" font-size="14.00">vars:[&#39;a&#39;]</text>
<text text-anchor="middle" x="758" y="-1453.3" font-family="Times,serif" font-size="14.00">grad:True</text>
</g>
<!-- 3&#45;&gt;13 -->
<g id="edge19" class="edge"><title>3&#45;&gt;13</title>
<path fill="none" stroke="green" d="M766.702,-1582.09C765.891,-1573.32 765.069,-1564.44 764.272,-1555.82"/>
<polygon fill="green" stroke="green" points="767.756,-1555.48 763.349,-1545.84 760.785,-1556.12 767.756,-1555.48"/>
</g>
<!-- 6 -->
<g id="node7" class="node"><title>6</title>
<ellipse fill="none" stroke="black" cx="477" cy="-1662" rx="138.951" ry="79.8063"/>
<text text-anchor="middle" x="477" y="-1703.3" font-family="Times,serif" font-size="14.00">id:6</text>
<text text-anchor="middle" x="477" y="-1688.3" font-family="Times,serif" font-size="14.00">type:&lt;class &#39;Nodes.Assignment&#39;&gt;</text>
<text text-anchor="middle" x="477" y="-1673.3" font-family="Times,serif" font-size="14.00">area:[0]</text>
<text text-anchor="middle" x="477" y="-1658.3" font-family="Times,serif" font-size="14.00">vars:[&#39;b&#39;, &#39;_5&#39;]</text>
<text text-anchor="middle" x="477" y="-1643.3" font-family="Times,serif" font-size="14.00">grad:True</text>
<text text-anchor="middle" x="477" y="-1628.3" font-family="Times,serif" font-size="14.00">slice:None</text>
<text text-anchor="middle" x="477" y="-1613.3" font-family="Times,serif" font-size="14.00">update:False</text>
</g>
<!-- 4&#45;&gt;6 -->
<g id="edge5" class="edge"><title>4&#45;&gt;6</title>
<path fill="none" stroke="green" d="M282.254,-1797.21C312.309,-1776.49 347.653,-1752.14 379.921,-1729.9"/>
<polygon fill="green" stroke="green" points="382.245,-1732.55 388.493,-1723.99 378.272,-1726.79 382.245,-1732.55"/>
</g>
<!-- 5&#45;&gt;6 -->
<g id="edge6" class="edge"><title>5&#45;&gt;6</title>
<path fill="none" stroke="green" d="M483.276,-1778.49C482.813,-1769.97 482.335,-1761.16 481.858,-1752.38"/>
<polygon fill="green" stroke="green" points="485.337,-1751.91 481.3,-1742.12 478.348,-1752.29 485.337,-1751.91"/>
</g>
<!-- 15 -->
<g id="node16" class="node"><title>15</title>
<ellipse fill="none" stroke="black" cx="494" cy="-1487" rx="106.161" ry="58.8803"/>
<text text-anchor="middle" x="494" y="-1513.3" font-family="Times,serif" font-size="14.00">id:15</text>
<text text-anchor="middle" x="494" y="-1498.3" font-family="Times,serif" font-size="14.00">type:&lt;class &#39;Nodes.Var&#39;&gt;</text>
<text text-anchor="middle" x="494" y="-1483.3" font-family="Times,serif" font-size="14.00">area:[0]</text>
<text text-anchor="middle" x="494" y="-1468.3" font-family="Times,serif" font-size="14.00">vars:[&#39;b&#39;]</text>
<text text-anchor="middle" x="494" y="-1453.3" font-family="Times,serif" font-size="14.00">grad:True</text>
</g>
<!-- 6&#45;&gt;15 -->
<g id="edge20" class="edge"><title>6&#45;&gt;15</title>
<path fill="none" stroke="green" d="M484.754,-1582.09C485.616,-1573.32 486.489,-1564.44 487.336,-1555.82"/>
<polygon fill="green" stroke="green" points="490.821,-1556.13 488.316,-1545.84 483.855,-1555.45 490.821,-1556.13"/>
</g>
<!-- 7 -->
<g id="node8" class="node"><title>7</title>
<ellipse fill="none" stroke="black" cx="1196" cy="-563" rx="111.584" ry="58.8803"/>
<text text-anchor="middle" x="1196" y="-589.3" font-family="Times,serif" font-size="14.00">id:7</text>
<text text-anchor="middle" x="1196" y="-574.3" font-family="Times,serif" font-size="14.00">type:&lt;class &#39;Nodes.EXP&#39;&gt;</text>
<text text-anchor="middle" x="1196" y="-559.3" font-family="Times,serif" font-size="14.00">area:[0]</text>
<text text-anchor="middle" x="1196" y="-544.3" font-family="Times,serif" font-size="14.00">vars:[&#39;_7&#39;, &#39;_9&#39;]</text>
<text text-anchor="middle" x="1196" y="-529.3" font-family="Times,serif" font-size="14.00">grad:True</text>
</g>
<!-- 18 -->
<g id="node19" class="node"><title>18</title>
<ellipse fill="none" stroke="black" cx="1270" cy="-388" rx="138.951" ry="79.8062"/>
<text text-anchor="middle" x="1270" y="-429.3" font-family="Times,serif" font-size="14.00">id:18</text>
<text text-anchor="middle" x="1270" y="-414.3" font-family="Times,serif" font-size="14.00">type:&lt;class &#39;Nodes.Assignment&#39;&gt;</text>
<text text-anchor="middle" x="1270" y="-399.3" font-family="Times,serif" font-size="14.00">area:[0]</text>
<text text-anchor="middle" x="1270" y="-384.3" font-family="Times,serif" font-size="14.00">vars:[&#39;c&#39;, &#39;_7&#39;]</text>
<text text-anchor="middle" x="1270" y="-369.3" font-family="Times,serif" font-size="14.00">grad:True</text>
<text text-anchor="middle" x="1270" y="-354.3" font-family="Times,serif" font-size="14.00">slice:None</text>
<text text-anchor="middle" x="1270" y="-339.3" font-family="Times,serif" font-size="14.00">update:False</text>
</g>
<!-- 7&#45;&gt;18 -->
<g id="edge24" class="edge"><title>7&#45;&gt;18</title>
<path fill="none" stroke="green" d="M1220.23,-505.353C1224.36,-495.696 1228.73,-485.473 1233.11,-475.255"/>
<polygon fill="green" stroke="green" points="1236.4,-476.458 1237.11,-465.888 1229.96,-473.706 1236.4,-476.458"/>
</g>
<!-- 9 -->
<g id="node10" class="node"><title>9</title>
<ellipse fill="none" stroke="black" cx="1180" cy="-717" rx="109.402" ry="58.8803"/>
<text text-anchor="middle" x="1180" y="-743.3" font-family="Times,serif" font-size="14.00">id:9</text>
<text text-anchor="middle" x="1180" y="-728.3" font-family="Times,serif" font-size="14.00">type:&lt;class &#39;Nodes.Mul&#39;&gt;</text>
<text text-anchor="middle" x="1180" y="-713.3" font-family="Times,serif" font-size="14.00">area:[0]</text>
<text text-anchor="middle" x="1180" y="-698.3" font-family="Times,serif" font-size="14.00">vars:[&#39;_9&#39;, &#39;_8&#39;, &#39;_10&#39;]</text>
<text text-anchor="middle" x="1180" y="-683.3" font-family="Times,serif" font-size="14.00">grad:True</text>
</g>
<!-- 8&#45;&gt;9 -->
<g id="edge10" class="edge"><title>8&#45;&gt;9</title>
<path fill="none" stroke="green" d="M1180,-1120.21C1180,-1035.17 1180,-876.639 1180,-786.078"/>
<polygon fill="green" stroke="green" points="1183.5,-785.919 1180,-775.919 1176.5,-785.919 1183.5,-785.919"/>
</g>
<!-- 9&#45;&gt;7 -->
<g id="edge9" class="edge"><title>9&#45;&gt;7</title>
<path fill="none" stroke="green" d="M1186.09,-658.102C1187,-649.539 1187.93,-640.651 1188.85,-631.907"/>
<polygon fill="green" stroke="green" points="1192.36,-632.049 1189.92,-621.737 1185.39,-631.316 1192.36,-632.049"/>
</g>
<!-- 10 -->
<g id="node11" class="node"><title>10</title>
<ellipse fill="none" stroke="black" cx="937" cy="-871" rx="117.07" ry="58.8803"/>
<text text-anchor="middle" x="937" y="-897.3" font-family="Times,serif" font-size="14.00">id:10</text>
<text text-anchor="middle" x="937" y="-882.3" font-family="Times,serif" font-size="14.00">type:&lt;class &#39;Nodes.SQRT&#39;&gt;</text>
<text text-anchor="middle" x="937" y="-867.3" font-family="Times,serif" font-size="14.00">area:[0]</text>
<text text-anchor="middle" x="937" y="-852.3" font-family="Times,serif" font-size="14.00">vars:[&#39;_10&#39;, &#39;_11&#39;]</text>
<text text-anchor="middle" x="937" y="-837.3" font-family="Times,serif" font-size="14.00">grad:True</text>
</g>
<!-- 10&#45;&gt;9 -->
<g id="edge11" class="edge"><title>10&#45;&gt;9</title>
<path fill="none" stroke="green" d="M1009.58,-824.601C1038.35,-806.607 1071.5,-785.865 1100.88,-767.488"/>
<polygon fill="green" stroke="green" points="1102.84,-770.391 1109.47,-762.12 1099.13,-764.456 1102.84,-770.391"/>
</g>
<!-- 11 -->
<g id="node12" class="node"><title>11</title>
<ellipse fill="none" stroke="black" cx="741" cy="-1025" rx="114.327" ry="58.8803"/>
<text text-anchor="middle" x="741" y="-1051.3" font-family="Times,serif" font-size="14.00">id:11</text>
<text text-anchor="middle" x="741" y="-1036.3" font-family="Times,serif" font-size="14.00">type:&lt;class &#39;Nodes.SUM&#39;&gt;</text>
<text text-anchor="middle" x="741" y="-1021.3" font-family="Times,serif" font-size="14.00">area:[0]</text>
<text text-anchor="middle" x="741" y="-1006.3" font-family="Times,serif" font-size="14.00">vars:[&#39;_11&#39;, &#39;_12&#39;]</text>
<text text-anchor="middle" x="741" y="-991.3" font-family="Times,serif" font-size="14.00">grad:True</text>
</g>
<!-- 11&#45;&gt;10 -->
<g id="edge12" class="edge"><title>11&#45;&gt;10</title>
<path fill="none" stroke="green" d="M803.285,-975.697C823.274,-960.195 845.56,-942.912 866.118,-926.97"/>
<polygon fill="green" stroke="green" points="868.447,-929.593 874.204,-920.699 864.157,-924.061 868.447,-929.593"/>
</g>
<!-- 12 -->
<g id="node13" class="node"><title>12</title>
<ellipse fill="none" stroke="black" cx="643" cy="-1179" rx="114.327" ry="58.8803"/>
<text text-anchor="middle" x="643" y="-1205.3" font-family="Times,serif" font-size="14.00">id:12</text>
<text text-anchor="middle" x="643" y="-1190.3" font-family="Times,serif" font-size="14.00">type:&lt;class &#39;Nodes.POW&#39;&gt;</text>
<text text-anchor="middle" x="643" y="-1175.3" font-family="Times,serif" font-size="14.00">area:[0]</text>
<text text-anchor="middle" x="643" y="-1160.3" font-family="Times,serif" font-size="14.00">vars:[&#39;_12&#39;, &#39;_14&#39;, &#39;_16&#39;]</text>
<text text-anchor="middle" x="643" y="-1145.3" font-family="Times,serif" font-size="14.00">grad:True</text>
</g>
<!-- 12&#45;&gt;11 -->
<g id="edge13" class="edge"><title>12&#45;&gt;11</title>
<path fill="none" stroke="green" d="M678.38,-1123.12C685.414,-1112.21 692.855,-1100.67 700.057,-1089.5"/>
<polygon fill="green" stroke="green" points="703.03,-1091.35 705.507,-1081.05 697.147,-1087.56 703.03,-1091.35"/>
</g>
<!-- 14 -->
<g id="node15" class="node"><title>14</title>
<ellipse fill="none" stroke="black" cx="643" cy="-1333" rx="108.281" ry="58.8803"/>
<text text-anchor="middle" x="643" y="-1359.3" font-family="Times,serif" font-size="14.00">id:14</text>
<text text-anchor="middle" x="643" y="-1344.3" font-family="Times,serif" font-size="14.00">type:&lt;class &#39;Nodes.Sub&#39;&gt;</text>
<text text-anchor="middle" x="643" y="-1329.3" font-family="Times,serif" font-size="14.00">area:[0]</text>
<text text-anchor="middle" x="643" y="-1314.3" font-family="Times,serif" font-size="14.00">vars:[&#39;_14&#39;, &#39;a&#39;, &#39;b&#39;]</text>
<text text-anchor="middle" x="643" y="-1299.3" font-family="Times,serif" font-size="14.00">grad:True</text>
</g>
<!-- 13&#45;&gt;14 -->
<g id="edge15" class="edge"><title>13&#45;&gt;14</title>
<path fill="none" stroke="green" d="M717.455,-1432.41C708.523,-1420.6 698.992,-1408.01 689.834,-1395.9"/>
<polygon fill="green" stroke="green" points="692.391,-1393.48 683.566,-1387.62 686.809,-1397.7 692.391,-1393.48"/>
</g>
<!-- 14&#45;&gt;12 -->
<g id="edge14" class="edge"><title>14&#45;&gt;12</title>
<path fill="none" stroke="green" d="M643,-1274.1C643,-1265.54 643,-1256.65 643,-1247.91"/>
<polygon fill="green" stroke="green" points="646.5,-1247.74 643,-1237.74 639.5,-1247.74 646.5,-1247.74"/>
</g>
<!-- 15&#45;&gt;14 -->
<g id="edge16" class="edge"><title>15&#45;&gt;14</title>
<path fill="none" stroke="green" d="M544.029,-1434.96C557.42,-1421.3 571.998,-1406.43 585.746,-1392.41"/>
<polygon fill="green" stroke="green" points="588.348,-1394.75 592.849,-1385.16 583.349,-1389.85 588.348,-1394.75"/>
</g>
<!-- 16&#45;&gt;12 -->
<g id="edge17" class="edge"><title>16&#45;&gt;12</title>
<path fill="none" stroke="green" d="M158.325,-1610.65C236.77,-1535.66 390.168,-1390.91 526,-1274 540.967,-1261.12 557.327,-1247.62 572.943,-1235.01"/>
<polygon fill="green" stroke="green" points="575.433,-1237.5 581.03,-1228.5 571.045,-1232.05 575.433,-1237.5"/>
</g>
<!-- 17&#45;&gt;18 -->
<g id="edge23" class="edge"><title>17&#45;&gt;18</title>
<path fill="none" stroke="green" d="M1349.59,-1274.2C1347.23,-1212.69 1344,-1112.49 1344,-1026 1344,-1026 1344,-1026 1344,-716 1344,-620.96 1340.06,-595.945 1316,-504 1313.53,-494.561 1310.49,-484.855 1307.16,-475.273"/>
<polygon fill="green" stroke="green" points="1310.42,-473.979 1303.75,-465.747 1303.83,-476.342 1310.42,-473.979"/>
</g>
<!-- 20 -->
<g id="node21" class="node"><title>20</title>
<ellipse fill="none" stroke="black" cx="1270" cy="-213" rx="106.161" ry="58.8803"/>
<text text-anchor="middle" x="1270" y="-239.3" font-family="Times,serif" font-size="14.00">id:20</text>
<text text-anchor="middle" x="1270" y="-224.3" font-family="Times,serif" font-size="14.00">type:&lt;class &#39;Nodes.Var&#39;&gt;</text>
<text text-anchor="middle" x="1270" y="-209.3" font-family="Times,serif" font-size="14.00">area:[0]</text>
<text text-anchor="middle" x="1270" y="-194.3" font-family="Times,serif" font-size="14.00">vars:[&#39;c&#39;]</text>
<text text-anchor="middle" x="1270" y="-179.3" font-family="Times,serif" font-size="14.00">grad:True</text>
</g>
<!-- 18&#45;&gt;20 -->
<g id="edge26" class="edge"><title>18&#45;&gt;20</title>
<path fill="none" stroke="green" d="M1270,-308.094C1270,-299.414 1270,-290.632 1270,-282.1"/>
<polygon fill="green" stroke="green" points="1273.5,-281.84 1270,-271.84 1266.5,-281.84 1273.5,-281.84"/>
</g>
<!-- 19 -->
<g id="node20" class="node"><title>19</title>
<ellipse fill="none" stroke="black" cx="1270" cy="-59" rx="131.283" ry="58.8803"/>
<text text-anchor="middle" x="1270" y="-85.3" font-family="Times,serif" font-size="14.00">id:19</text>
<text text-anchor="middle" x="1270" y="-70.3" font-family="Times,serif" font-size="14.00">type:&lt;class &#39;Nodes.Backward&#39;&gt;</text>
<text text-anchor="middle" x="1270" y="-55.3" font-family="Times,serif" font-size="14.00">area:[0]</text>
<text text-anchor="middle" x="1270" y="-40.3" font-family="Times,serif" font-size="14.00">vars:[&#39;c&#39;]</text>
<text text-anchor="middle" x="1270" y="-25.3" font-family="Times,serif" font-size="14.00">grad:True</text>
</g>
<!-- 20&#45;&gt;19 -->
<g id="edge25" class="edge"><title>20&#45;&gt;19</title>
<path fill="none" stroke="green" d="M1270,-154.102C1270,-145.539 1270,-136.651 1270,-127.907"/>
<polygon fill="green" stroke="green" points="1273.5,-127.737 1270,-117.737 1266.5,-127.737 1273.5,-127.737"/>
</g>
</g>
</svg>
