<?xml version="1.0" encoding="UTF-8" standalone="no"?>
<!DOCTYPE svg PUBLIC "-//W3C//DTD SVG 1.1//EN"
 "http://www.w3.org/Graphics/SVG/1.1/DTD/svg11.dtd">
<!-- Generated by graphviz version 2.47.0 (20210316.0004)
 -->
<!-- Title: computation graph Pages: 1 -->
<svg width="1429pt" height="2072pt"
 viewBox="0.00 0.00 1429.39 2072.00" xmlns="http://www.w3.org/2000/svg" xmlns:xlink="http://www.w3.org/1999/xlink">
<g id="graph0" class="graph" transform="scale(1 1) rotate(0) translate(4 2068)">
<title>computation graph</title>
<polygon fill="white" stroke="transparent" points="-4,4 -4,-2068 1425.39,-2068 1425.39,4 -4,4"/>
<!-- 0 -->
<g id="node1" class="node">
<title>0</title>
<ellipse fill="none" stroke="black" cx="766.07" cy="-2005.31" rx="118.17" ry="58.88"/>
<text text-anchor="middle" x="766.07" y="-2031.61" font-family="Times New Roman,serif" font-size="14.00">id:0</text>
<text text-anchor="middle" x="766.07" y="-2016.61" font-family="Times New Roman,serif" font-size="14.00">type:&lt;class &#39;Nodes.Root&#39;&gt;</text>
<text text-anchor="middle" x="766.07" y="-2001.61" font-family="Times New Roman,serif" font-size="14.00">area:[]</text>
<text text-anchor="middle" x="766.07" y="-1986.61" font-family="Times New Roman,serif" font-size="14.00">vars:[]</text>
<text text-anchor="middle" x="766.07" y="-1971.61" font-family="Times New Roman,serif" font-size="14.00">grad:False</text>
</g>
<!-- 1 -->
<g id="node2" class="node">
<title>1</title>
<ellipse fill="none" stroke="black" cx="1053.07" cy="-1841.33" rx="151.14" ry="58.88"/>
<text text-anchor="middle" x="1053.07" y="-1867.63" font-family="Times New Roman,serif" font-size="14.00">id:1</text>
<text text-anchor="middle" x="1053.07" y="-1852.63" font-family="Times New Roman,serif" font-size="14.00">type:&lt;class &#39;Nodes.CreateTensor&#39;&gt;</text>
<text text-anchor="middle" x="1053.07" y="-1837.63" font-family="Times New Roman,serif" font-size="14.00">area:[0]</text>
<text text-anchor="middle" x="1053.07" y="-1822.63" font-family="Times New Roman,serif" font-size="14.00">vars:[&#39;a&#39;]</text>
<text text-anchor="middle" x="1053.07" y="-1807.63" font-family="Times New Roman,serif" font-size="14.00">grad:True</text>
</g>
<!-- 0&#45;&gt;1 -->
<g id="edge4" class="edge">
<title>0&#45;&gt;1</title>
<path fill="none" stroke="green" d="M843.36,-1960.69C879.09,-1940.52 921.85,-1916.39 959.4,-1895.19"/>
<polygon fill="green" stroke="green" points="961.34,-1898.12 968.32,-1890.16 957.9,-1892.02 961.34,-1898.12"/>
</g>
<!-- 2 -->
<g id="node3" class="node">
<title>2</title>
<ellipse fill="none" stroke="black" cx="766.07" cy="-1841.33" rx="118.17" ry="69.09"/>
<text text-anchor="middle" x="766.07" y="-1875.13" font-family="Times New Roman,serif" font-size="14.00">id:2</text>
<text text-anchor="middle" x="766.07" y="-1860.13" font-family="Times New Roman,serif" font-size="14.00">type:&lt;class &#39;Nodes.Ones&#39;&gt;</text>
<text text-anchor="middle" x="766.07" y="-1845.13" font-family="Times New Roman,serif" font-size="14.00">area:[0]</text>
<text text-anchor="middle" x="766.07" y="-1830.13" font-family="Times New Roman,serif" font-size="14.00">vars:[&#39;_2&#39;]</text>
<text text-anchor="middle" x="766.07" y="-1815.13" font-family="Times New Roman,serif" font-size="14.00">grad:True</text>
<text text-anchor="middle" x="766.07" y="-1800.13" font-family="Times New Roman,serif" font-size="14.00">data_shape:(3, 3)</text>
</g>
<!-- 0&#45;&gt;2 -->
<g id="edge3" class="edge">
<title>0&#45;&gt;2</title>
<path fill="none" stroke="green" d="M766.07,-1946.29C766.07,-1938 766.07,-1929.37 766.07,-1920.77"/>
<polygon fill="green" stroke="green" points="769.57,-1920.72 766.07,-1910.72 762.57,-1920.72 769.57,-1920.72"/>
</g>
<!-- 4 -->
<g id="node5" class="node">
<title>4</title>
<ellipse fill="none" stroke="black" cx="479.07" cy="-1841.33" rx="151.14" ry="58.88"/>
<text text-anchor="middle" x="479.07" y="-1867.63" font-family="Times New Roman,serif" font-size="14.00">id:4</text>
<text text-anchor="middle" x="479.07" y="-1852.63" font-family="Times New Roman,serif" font-size="14.00">type:&lt;class &#39;Nodes.CreateTensor&#39;&gt;</text>
<text text-anchor="middle" x="479.07" y="-1837.63" font-family="Times New Roman,serif" font-size="14.00">area:[0]</text>
<text text-anchor="middle" x="479.07" y="-1822.63" font-family="Times New Roman,serif" font-size="14.00">vars:[&#39;b&#39;]</text>
<text text-anchor="middle" x="479.07" y="-1807.63" font-family="Times New Roman,serif" font-size="14.00">grad:True</text>
</g>
<!-- 0&#45;&gt;4 -->
<g id="edge8" class="edge">
<title>0&#45;&gt;4</title>
<path fill="none" stroke="green" d="M688.78,-1960.69C653.04,-1940.52 610.29,-1916.39 572.74,-1895.19"/>
<polygon fill="green" stroke="green" points="574.24,-1892.02 563.81,-1890.16 570.8,-1898.12 574.24,-1892.02"/>
</g>
<!-- 5 -->
<g id="node6" class="node">
<title>5</title>
<ellipse fill="none" stroke="black" cx="189.07" cy="-1841.33" rx="120.42" ry="69.09"/>
<text text-anchor="middle" x="189.07" y="-1875.13" font-family="Times New Roman,serif" font-size="14.00">id:5</text>
<text text-anchor="middle" x="189.07" y="-1860.13" font-family="Times New Roman,serif" font-size="14.00">type:&lt;class &#39;Nodes.Zeros&#39;&gt;</text>
<text text-anchor="middle" x="189.07" y="-1845.13" font-family="Times New Roman,serif" font-size="14.00">area:[0]</text>
<text text-anchor="middle" x="189.07" y="-1830.13" font-family="Times New Roman,serif" font-size="14.00">vars:[&#39;_5&#39;]</text>
<text text-anchor="middle" x="189.07" y="-1815.13" font-family="Times New Roman,serif" font-size="14.00">grad:True</text>
<text text-anchor="middle" x="189.07" y="-1800.13" font-family="Times New Roman,serif" font-size="14.00">data_shape:(3, 3)</text>
</g>
<!-- 0&#45;&gt;5 -->
<g id="edge7" class="edge">
<title>0&#45;&gt;5</title>
<path fill="none" stroke="green" d="M652.09,-1989.34C560.3,-1975.18 428.94,-1950.13 319.07,-1910.62 307.02,-1906.29 294.7,-1901.03 282.68,-1895.38"/>
<polygon fill="green" stroke="green" points="284.08,-1892.17 273.55,-1890.98 281.04,-1898.47 284.08,-1892.17"/>
</g>
<!-- 8 -->
<g id="node9" class="node">
<title>8</title>
<ellipse fill="none" stroke="black" cx="1111.07" cy="-1174.77" rx="111.03" ry="58.88"/>
<text text-anchor="middle" x="1111.07" y="-1201.07" font-family="Times New Roman,serif" font-size="14.00">id:8</text>
<text text-anchor="middle" x="1111.07" y="-1186.07" font-family="Times New Roman,serif" font-size="14.00">type:&lt;class &#39;Nodes.Val&#39;&gt;</text>
<text text-anchor="middle" x="1111.07" y="-1171.07" font-family="Times New Roman,serif" font-size="14.00">area:[0]</text>
<text text-anchor="middle" x="1111.07" y="-1156.07" font-family="Times New Roman,serif" font-size="14.00">vars:[&#39;_8&#39;]</text>
<text text-anchor="middle" x="1111.07" y="-1141.07" font-family="Times New Roman,serif" font-size="14.00">grad:False</text>
</g>
<!-- 0&#45;&gt;8 -->
<g id="edge18" class="edge">
<title>0&#45;&gt;8</title>
<path fill="none" stroke="green" d="M882.51,-1995.53C1000.13,-1984.03 1170.38,-1959.34 1213.07,-1910.62 1287.52,-1825.65 1232.07,-1770.11 1232.07,-1657.13 1232.07,-1657.13 1232.07,-1657.13 1232.07,-1480.53 1232.07,-1392.27 1187.69,-1299.14 1152.68,-1239.4"/>
<polygon fill="green" stroke="green" points="1155.49,-1237.28 1147.37,-1230.47 1149.47,-1240.86 1155.49,-1237.28"/>
</g>
<!-- 16 -->
<g id="node17" class="node">
<title>16</title>
<ellipse fill="none" stroke="black" cx="141.07" cy="-1328.15" rx="111.03" ry="58.88"/>
<text text-anchor="middle" x="141.07" y="-1354.45" font-family="Times New Roman,serif" font-size="14.00">id:16</text>
<text text-anchor="middle" x="141.07" y="-1339.45" font-family="Times New Roman,serif" font-size="14.00">type:&lt;class &#39;Nodes.Val&#39;&gt;</text>
<text text-anchor="middle" x="141.07" y="-1324.45" font-family="Times New Roman,serif" font-size="14.00">area:[0]</text>
<text text-anchor="middle" x="141.07" y="-1309.45" font-family="Times New Roman,serif" font-size="14.00">vars:[&#39;_16&#39;]</text>
<text text-anchor="middle" x="141.07" y="-1294.45" font-family="Times New Roman,serif" font-size="14.00">grad:False</text>
</g>
<!-- 0&#45;&gt;16 -->
<g id="edge21" class="edge">
<title>0&#45;&gt;16</title>
<path fill="none" stroke="green" d="M648.92,-1997.09C458.27,-1984.13 98.21,-1954.16 60.07,-1910.62 -68.56,-1763.8 40.59,-1511.24 103.75,-1393.31"/>
<polygon fill="green" stroke="green" points="106.91,-1394.83 108.59,-1384.37 100.75,-1391.5 106.91,-1394.83"/>
</g>
<!-- 17 -->
<g id="node18" class="node">
<title>17</title>
<ellipse fill="none" stroke="black" cx="1270.07" cy="-1021.39" rx="151.14" ry="58.88"/>
<text text-anchor="middle" x="1270.07" y="-1047.69" font-family="Times New Roman,serif" font-size="14.00">id:17</text>
<text text-anchor="middle" x="1270.07" y="-1032.69" font-family="Times New Roman,serif" font-size="14.00">type:&lt;class &#39;Nodes.CreateTensor&#39;&gt;</text>
<text text-anchor="middle" x="1270.07" y="-1017.69" font-family="Times New Roman,serif" font-size="14.00">area:[0]</text>
<text text-anchor="middle" x="1270.07" y="-1002.69" font-family="Times New Roman,serif" font-size="14.00">vars:[&#39;c&#39;]</text>
<text text-anchor="middle" x="1270.07" y="-987.69" font-family="Times New Roman,serif" font-size="14.00">grad:False</text>
</g>
<!-- 0&#45;&gt;17 -->
<g id="edge22" class="edge">
<title>0&#45;&gt;17</title>
<path fill="none" stroke="green" d="M883.08,-1997.22C1009.27,-1986.95 1198.53,-1963.08 1246.07,-1910.62 1322.06,-1826.76 1270.07,-1770.3 1270.07,-1657.13 1270.07,-1657.13 1270.07,-1657.13 1270.07,-1327.15 1270.07,-1245.71 1270.07,-1152.02 1270.07,-1090.26"/>
<polygon fill="green" stroke="green" points="1273.57,-1090.25 1270.07,-1080.25 1266.57,-1090.25 1273.57,-1090.25"/>
</g>
<!-- 3 -->
<g id="node4" class="node">
<title>3</title>
<ellipse fill="none" stroke="black" cx="775.07" cy="-1656.13" rx="143.59" ry="79.81"/>
<text text-anchor="middle" x="775.07" y="-1697.43" font-family="Times New Roman,serif" font-size="14.00">id:3</text>
<text text-anchor="middle" x="775.07" y="-1682.43" font-family="Times New Roman,serif" font-size="14.00">type:&lt;class &#39;Nodes.Assignment&#39;&gt;</text>
<text text-anchor="middle" x="775.07" y="-1667.43" font-family="Times New Roman,serif" font-size="14.00">area:[0]</text>
<text text-anchor="middle" x="775.07" y="-1652.43" font-family="Times New Roman,serif" font-size="14.00">vars:[&#39;a&#39;, &#39;_2&#39;]</text>
<text text-anchor="middle" x="775.07" y="-1637.43" font-family="Times New Roman,serif" font-size="14.00">grad:True</text>
<text text-anchor="middle" x="775.07" y="-1622.43" font-family="Times New Roman,serif" font-size="14.00">slice:None</text>
<text text-anchor="middle" x="775.07" y="-1607.43" font-family="Times New Roman,serif" font-size="14.00">update:False</text>
</g>
<!-- 1&#45;&gt;3 -->
<g id="edge1" class="edge">
<title>1&#45;&gt;3</title>
<path fill="none" stroke="green" d="M977.1,-1790.27C945.76,-1769.61 908.99,-1745.38 875.47,-1723.29"/>
<polygon fill="green" stroke="green" points="877.3,-1720.3 867.02,-1717.72 873.45,-1726.15 877.3,-1720.3"/>
</g>
<!-- 2&#45;&gt;3 -->
<g id="edge2" class="edge">
<title>2&#45;&gt;3</title>
<path fill="none" stroke="green" d="M769.43,-1771.85C769.84,-1763.45 770.27,-1754.77 770.7,-1746.12"/>
<polygon fill="green" stroke="green" points="774.2,-1746.16 771.19,-1736.01 767.21,-1745.82 774.2,-1746.16"/>
</g>
<!-- 13 -->
<g id="node14" class="node">
<title>13</title>
<ellipse fill="none" stroke="black" cx="743.07" cy="-1481.53" rx="111.95" ry="58.88"/>
<text text-anchor="middle" x="743.07" y="-1507.83" font-family="Times New Roman,serif" font-size="14.00">id:13</text>
<text text-anchor="middle" x="743.07" y="-1492.83" font-family="Times New Roman,serif" font-size="14.00">type:&lt;class &#39;Nodes.Var&#39;&gt;</text>
<text text-anchor="middle" x="743.07" y="-1477.83" font-family="Times New Roman,serif" font-size="14.00">area:[0]</text>
<text text-anchor="middle" x="743.07" y="-1462.83" font-family="Times New Roman,serif" font-size="14.00">vars:[&#39;a&#39;]</text>
<text text-anchor="middle" x="743.07" y="-1447.83" font-family="Times New Roman,serif" font-size="14.00">grad:True</text>
</g>
<!-- 3&#45;&gt;13 -->
<g id="edge19" class="edge">
<title>3&#45;&gt;13</title>
<path fill="none" stroke="green" d="M760.47,-1576.41C758.84,-1567.59 757.18,-1558.66 755.58,-1550"/>
<polygon fill="green" stroke="green" points="758.98,-1549.18 753.72,-1539.98 752.1,-1550.45 758.98,-1549.18"/>
</g>
<!-- 6 -->
<g id="node7" class="node">
<title>6</title>
<ellipse fill="none" stroke="black" cx="470.07" cy="-1656.13" rx="143.59" ry="79.81"/>
<text text-anchor="middle" x="470.07" y="-1697.43" font-family="Times New Roman,serif" font-size="14.00">id:6</text>
<text text-anchor="middle" x="470.07" y="-1682.43" font-family="Times New Roman,serif" font-size="14.00">type:&lt;class &#39;Nodes.Assignment&#39;&gt;</text>
<text text-anchor="middle" x="470.07" y="-1667.43" font-family="Times New Roman,serif" font-size="14.00">area:[0]</text>
<text text-anchor="middle" x="470.07" y="-1652.43" font-family="Times New Roman,serif" font-size="14.00">vars:[&#39;b&#39;, &#39;_5&#39;]</text>
<text text-anchor="middle" x="470.07" y="-1637.43" font-family="Times New Roman,serif" font-size="14.00">grad:True</text>
<text text-anchor="middle" x="470.07" y="-1622.43" font-family="Times New Roman,serif" font-size="14.00">slice:None</text>
<text text-anchor="middle" x="470.07" y="-1607.43" font-family="Times New Roman,serif" font-size="14.00">update:False</text>
</g>
<!-- 4&#45;&gt;6 -->
<g id="edge5" class="edge">
<title>4&#45;&gt;6</title>
<path fill="none" stroke="green" d="M476.23,-1782.61C475.67,-1771.06 475.06,-1758.67 474.45,-1746.34"/>
<polygon fill="green" stroke="green" points="477.93,-1745.83 473.94,-1736.01 470.94,-1746.17 477.93,-1745.83"/>
</g>
<!-- 5&#45;&gt;6 -->
<g id="edge6" class="edge">
<title>5&#45;&gt;6</title>
<path fill="none" stroke="green" d="M268.09,-1788.81C299.52,-1768.32 336.05,-1744.5 369.34,-1722.79"/>
<polygon fill="green" stroke="green" points="371.27,-1725.72 377.73,-1717.33 367.44,-1719.85 371.27,-1725.72"/>
</g>
<!-- 15 -->
<g id="node16" class="node">
<title>15</title>
<ellipse fill="none" stroke="black" cx="486.07" cy="-1481.53" rx="111.95" ry="58.88"/>
<text text-anchor="middle" x="486.07" y="-1507.83" font-family="Times New Roman,serif" font-size="14.00">id:15</text>
<text text-anchor="middle" x="486.07" y="-1492.83" font-family="Times New Roman,serif" font-size="14.00">type:&lt;class &#39;Nodes.Var&#39;&gt;</text>
<text text-anchor="middle" x="486.07" y="-1477.83" font-family="Times New Roman,serif" font-size="14.00">area:[0]</text>
<text text-anchor="middle" x="486.07" y="-1462.83" font-family="Times New Roman,serif" font-size="14.00">vars:[&#39;b&#39;]</text>
<text text-anchor="middle" x="486.07" y="-1447.83" font-family="Times New Roman,serif" font-size="14.00">grad:True</text>
</g>
<!-- 6&#45;&gt;15 -->
<g id="edge20" class="edge">
<title>6&#45;&gt;15</title>
<path fill="none" stroke="green" d="M477.39,-1576.15C478.18,-1567.57 478.99,-1558.89 479.77,-1550.46"/>
<polygon fill="green" stroke="green" points="483.27,-1550.6 480.71,-1540.32 476.3,-1549.95 483.27,-1550.6"/>
</g>
<!-- 7 -->
<g id="node8" class="node">
<title>7</title>
<ellipse fill="none" stroke="black" cx="1108.07" cy="-561.26" rx="115.93" ry="58.88"/>
<text text-anchor="middle" x="1108.07" y="-587.56" font-family="Times New Roman,serif" font-size="14.00">id:7</text>
<text text-anchor="middle" x="1108.07" y="-572.56" font-family="Times New Roman,serif" font-size="14.00">type:&lt;class &#39;Nodes.EXP&#39;&gt;</text>
<text text-anchor="middle" x="1108.07" y="-557.56" font-family="Times New Roman,serif" font-size="14.00">area:[0]</text>
<text text-anchor="middle" x="1108.07" y="-542.56" font-family="Times New Roman,serif" font-size="14.00">vars:[&#39;_7&#39;, &#39;_9&#39;]</text>
<text text-anchor="middle" x="1108.07" y="-527.56" font-family="Times New Roman,serif" font-size="14.00">grad:True</text>
</g>
<!-- 18 -->
<g id="node19" class="node">
<title>18</title>
<ellipse fill="none" stroke="black" cx="1180.07" cy="-386.66" rx="143.59" ry="79.81"/>
<text text-anchor="middle" x="1180.07" y="-427.96" font-family="Times New Roman,serif" font-size="14.00">id:18</text>
<text text-anchor="middle" x="1180.07" y="-412.96" font-family="Times New Roman,serif" font-size="14.00">type:&lt;class &#39;Nodes.Assignment&#39;&gt;</text>
<text text-anchor="middle" x="1180.07" y="-397.96" font-family="Times New Roman,serif" font-size="14.00">area:[0]</text>
<text text-anchor="middle" x="1180.07" y="-382.96" font-family="Times New Roman,serif" font-size="14.00">vars:[&#39;c&#39;, &#39;_7&#39;]</text>
<text text-anchor="middle" x="1180.07" y="-367.96" font-family="Times New Roman,serif" font-size="14.00">grad:True</text>
<text text-anchor="middle" x="1180.07" y="-352.96" font-family="Times New Roman,serif" font-size="14.00">slice:None</text>
<text text-anchor="middle" x="1180.07" y="-337.96" font-family="Times New Roman,serif" font-size="14.00">update:False</text>
</g>
<!-- 7&#45;&gt;18 -->
<g id="edge24" class="edge">
<title>7&#45;&gt;18</title>
<path fill="none" stroke="green" d="M1131.64,-503.74C1135.63,-494.18 1139.85,-484.07 1144.07,-473.95"/>
<polygon fill="green" stroke="green" points="1147.32,-475.26 1147.94,-464.68 1140.86,-472.56 1147.32,-475.26"/>
</g>
<!-- 9 -->
<g id="node10" class="node">
<title>9</title>
<ellipse fill="none" stroke="black" cx="1091.07" cy="-714.64" rx="113.27" ry="58.88"/>
<text text-anchor="middle" x="1091.07" y="-740.94" font-family="Times New Roman,serif" font-size="14.00">id:9</text>
<text text-anchor="middle" x="1091.07" y="-725.94" font-family="Times New Roman,serif" font-size="14.00">type:&lt;class &#39;Nodes.Mul&#39;&gt;</text>
<text text-anchor="middle" x="1091.07" y="-710.94" font-family="Times New Roman,serif" font-size="14.00">area:[0]</text>
<text text-anchor="middle" x="1091.07" y="-695.94" font-family="Times New Roman,serif" font-size="14.00">vars:[&#39;_9&#39;, &#39;_8&#39;, &#39;_10&#39;]</text>
<text text-anchor="middle" x="1091.07" y="-680.94" font-family="Times New Roman,serif" font-size="14.00">grad:True</text>
</g>
<!-- 8&#45;&gt;9 -->
<g id="edge10" class="edge">
<title>8&#45;&gt;9</title>
<path fill="none" stroke="green" d="M1108.54,-1115.75C1104.84,-1031.01 1097.97,-873.72 1094.04,-783.65"/>
<polygon fill="green" stroke="green" points="1097.53,-783.39 1093.6,-773.55 1090.54,-783.69 1097.53,-783.39"/>
</g>
<!-- 9&#45;&gt;7 -->
<g id="edge9" class="edge">
<title>9&#45;&gt;7</title>
<path fill="none" stroke="green" d="M1097.54,-655.97C1098.49,-647.51 1099.48,-638.72 1100.45,-630.07"/>
<polygon fill="green" stroke="green" points="1103.94,-630.34 1101.58,-620.01 1096.99,-629.55 1103.94,-630.34"/>
</g>
<!-- 10 -->
<g id="node11" class="node">
<title>10</title>
<ellipse fill="none" stroke="black" cx="900.07" cy="-868.01" rx="124.4" ry="58.88"/>
<text text-anchor="middle" x="900.07" y="-894.31" font-family="Times New Roman,serif" font-size="14.00">id:10</text>
<text text-anchor="middle" x="900.07" y="-879.31" font-family="Times New Roman,serif" font-size="14.00">type:&lt;class &#39;Nodes.SQRT&#39;&gt;</text>
<text text-anchor="middle" x="900.07" y="-864.31" font-family="Times New Roman,serif" font-size="14.00">area:[0]</text>
<text text-anchor="middle" x="900.07" y="-849.31" font-family="Times New Roman,serif" font-size="14.00">vars:[&#39;_10&#39;, &#39;_11&#39;]</text>
<text text-anchor="middle" x="900.07" y="-834.31" font-family="Times New Roman,serif" font-size="14.00">grad:True</text>
</g>
<!-- 10&#45;&gt;9 -->
<g id="edge11" class="edge">
<title>10&#45;&gt;9</title>
<path fill="none" stroke="green" d="M962.87,-817.24C981.79,-802.24 1002.66,-785.7 1021.97,-770.4"/>
<polygon fill="green" stroke="green" points="1024.19,-773.11 1029.85,-764.15 1019.84,-767.62 1024.19,-773.11"/>
</g>
<!-- 11 -->
<g id="node12" class="node">
<title>11</title>
<ellipse fill="none" stroke="black" cx="823.07" cy="-1021.39" rx="118.59" ry="58.88"/>
<text text-anchor="middle" x="823.07" y="-1047.69" font-family="Times New Roman,serif" font-size="14.00">id:11</text>
<text text-anchor="middle" x="823.07" y="-1032.69" font-family="Times New Roman,serif" font-size="14.00">type:&lt;class &#39;Nodes.SUM&#39;&gt;</text>
<text text-anchor="middle" x="823.07" y="-1017.69" font-family="Times New Roman,serif" font-size="14.00">area:[0]</text>
<text text-anchor="middle" x="823.07" y="-1002.69" font-family="Times New Roman,serif" font-size="14.00">vars:[&#39;_11&#39;, &#39;_12&#39;]</text>
<text text-anchor="middle" x="823.07" y="-987.69" font-family="Times New Roman,serif" font-size="14.00">grad:True</text>
</g>
<!-- 11&#45;&gt;10 -->
<g id="edge12" class="edge">
<title>11&#45;&gt;10</title>
<path fill="none" stroke="green" d="M851.74,-964.03C856.68,-954.31 861.86,-944.13 866.91,-934.21"/>
<polygon fill="green" stroke="green" points="870.09,-935.68 871.5,-925.18 863.85,-932.5 870.09,-935.68"/>
</g>
<!-- 12 -->
<g id="node13" class="node">
<title>12</title>
<ellipse fill="none" stroke="black" cx="634.07" cy="-1174.77" rx="120.42" ry="58.88"/>
<text text-anchor="middle" x="634.07" y="-1201.07" font-family="Times New Roman,serif" font-size="14.00">id:12</text>
<text text-anchor="middle" x="634.07" y="-1186.07" font-family="Times New Roman,serif" font-size="14.00">type:&lt;class &#39;Nodes.POW&#39;&gt;</text>
<text text-anchor="middle" x="634.07" y="-1171.07" font-family="Times New Roman,serif" font-size="14.00">area:[0]</text>
<text text-anchor="middle" x="634.07" y="-1156.07" font-family="Times New Roman,serif" font-size="14.00">vars:[&#39;_12&#39;, &#39;_14&#39;, &#39;_16&#39;]</text>
<text text-anchor="middle" x="634.07" y="-1141.07" font-family="Times New Roman,serif" font-size="14.00">grad:True</text>
</g>
<!-- 12&#45;&gt;11 -->
<g id="edge13" class="edge">
<title>12&#45;&gt;11</title>
<path fill="none" stroke="green" d="M695.95,-1124.21C714.32,-1109.49 734.57,-1093.28 753.39,-1078.2"/>
<polygon fill="green" stroke="green" points="755.75,-1080.8 761.37,-1071.81 751.37,-1075.33 755.75,-1080.8"/>
</g>
<!-- 14 -->
<g id="node15" class="node">
<title>14</title>
<ellipse fill="none" stroke="black" cx="634.07" cy="-1328.15" rx="113.69" ry="58.88"/>
<text text-anchor="middle" x="634.07" y="-1354.45" font-family="Times New Roman,serif" font-size="14.00">id:14</text>
<text text-anchor="middle" x="634.07" y="-1339.45" font-family="Times New Roman,serif" font-size="14.00">type:&lt;class &#39;Nodes.Sub&#39;&gt;</text>
<text text-anchor="middle" x="634.07" y="-1324.45" font-family="Times New Roman,serif" font-size="14.00">area:[0]</text>
<text text-anchor="middle" x="634.07" y="-1309.45" font-family="Times New Roman,serif" font-size="14.00">vars:[&#39;_14&#39;, &#39;a&#39;, &#39;b&#39;]</text>
<text text-anchor="middle" x="634.07" y="-1294.45" font-family="Times New Roman,serif" font-size="14.00">grad:True</text>
</g>
<!-- 13&#45;&gt;14 -->
<g id="edge15" class="edge">
<title>13&#45;&gt;14</title>
<path fill="none" stroke="green" d="M704.02,-1426.31C695.96,-1415.11 687.41,-1403.23 679.15,-1391.77"/>
<polygon fill="green" stroke="green" points="681.89,-1389.58 673.21,-1383.51 676.21,-1393.67 681.89,-1389.58"/>
</g>
<!-- 14&#45;&gt;12 -->
<g id="edge14" class="edge">
<title>14&#45;&gt;12</title>
<path fill="none" stroke="green" d="M634.07,-1269.06C634.07,-1260.82 634.07,-1252.29 634.07,-1243.88"/>
<polygon fill="green" stroke="green" points="637.57,-1243.71 634.07,-1233.71 630.57,-1243.71 637.57,-1243.71"/>
</g>
<!-- 15&#45;&gt;14 -->
<g id="edge16" class="edge">
<title>15&#45;&gt;14</title>
<path fill="none" stroke="green" d="M536.59,-1428.86C549.38,-1415.78 563.21,-1401.63 576.32,-1388.22"/>
<polygon fill="green" stroke="green" points="579.04,-1390.45 583.53,-1380.85 574.03,-1385.55 579.04,-1390.45"/>
</g>
<!-- 16&#45;&gt;12 -->
<g id="edge17" class="edge">
<title>16&#45;&gt;12</title>
<path fill="none" stroke="green" d="M236.42,-1297.88C318.57,-1272.65 437.2,-1236.22 523.5,-1209.73"/>
<polygon fill="green" stroke="green" points="524.53,-1213.07 533.07,-1206.79 522.48,-1206.38 524.53,-1213.07"/>
</g>
<!-- 17&#45;&gt;18 -->
<g id="edge23" class="edge">
<title>17&#45;&gt;18</title>
<path fill="none" stroke="green" d="M1272.63,-962.62C1275.44,-865.79 1274.94,-665.36 1233.07,-502.57 1230.54,-492.73 1227.19,-482.7 1223.41,-472.87"/>
<polygon fill="green" stroke="green" points="1226.63,-471.49 1219.66,-463.51 1220.13,-474.1 1226.63,-471.49"/>
</g>
<!-- 20 -->
<g id="node21" class="node">
<title>20</title>
<ellipse fill="none" stroke="black" cx="1180.07" cy="-212.07" rx="111.95" ry="58.88"/>
<text text-anchor="middle" x="1180.07" y="-238.37" font-family="Times New Roman,serif" font-size="14.00">id:20</text>
<text text-anchor="middle" x="1180.07" y="-223.37" font-family="Times New Roman,serif" font-size="14.00">type:&lt;class &#39;Nodes.Var&#39;&gt;</text>
<text text-anchor="middle" x="1180.07" y="-208.37" font-family="Times New Roman,serif" font-size="14.00">area:[0]</text>
<text text-anchor="middle" x="1180.07" y="-193.37" font-family="Times New Roman,serif" font-size="14.00">vars:[&#39;c&#39;]</text>
<text text-anchor="middle" x="1180.07" y="-178.37" font-family="Times New Roman,serif" font-size="14.00">grad:True</text>
</g>
<!-- 18&#45;&gt;20 -->
<g id="edge26" class="edge">
<title>18&#45;&gt;20</title>
<path fill="none" stroke="green" d="M1180.07,-306.69C1180.07,-298.11 1180.07,-289.43 1180.07,-280.99"/>
<polygon fill="green" stroke="green" points="1183.57,-280.85 1180.07,-270.85 1176.57,-280.85 1183.57,-280.85"/>
</g>
<!-- 19 -->
<g id="node20" class="node">
<title>19</title>
<ellipse fill="none" stroke="black" cx="1180.07" cy="-58.69" rx="137.36" ry="58.88"/>
<text text-anchor="middle" x="1180.07" y="-84.99" font-family="Times New Roman,serif" font-size="14.00">id:19</text>
<text text-anchor="middle" x="1180.07" y="-69.99" font-family="Times New Roman,serif" font-size="14.00">type:&lt;class &#39;Nodes.Backward&#39;&gt;</text>
<text text-anchor="middle" x="1180.07" y="-54.99" font-family="Times New Roman,serif" font-size="14.00">area:[0]</text>
<text text-anchor="middle" x="1180.07" y="-39.99" font-family="Times New Roman,serif" font-size="14.00">vars:[&#39;c&#39;]</text>
<text text-anchor="middle" x="1180.07" y="-24.99" font-family="Times New Roman,serif" font-size="14.00">grad:True</text>
</g>
<!-- 20&#45;&gt;19 -->
<g id="edge25" class="edge">
<title>20&#45;&gt;19</title>
<path fill="none" stroke="green" d="M1180.07,-152.98C1180.07,-144.74 1180.07,-136.2 1180.07,-127.79"/>
<polygon fill="green" stroke="green" points="1183.57,-127.63 1180.07,-117.63 1176.57,-127.63 1183.57,-127.63"/>
</g>
</g>
</svg>
