<?xml version="1.0" encoding="UTF-8" standalone="no"?>
<!DOCTYPE svg PUBLIC "-//W3C//DTD SVG 1.1//EN"
 "http://www.w3.org/Graphics/SVG/1.1/DTD/svg11.dtd">
<!-- Generated by graphviz version 2.47.0 (20210316.0004)
 -->
<!-- Title: computation graph Pages: 1 -->
<svg width="1390pt" height="1458pt"
 viewBox="0.00 0.00 1389.64 1458.48" xmlns="http://www.w3.org/2000/svg" xmlns:xlink="http://www.w3.org/1999/xlink">
<g id="graph0" class="graph" transform="scale(1 1) rotate(0) translate(4 1454.48)">
<title>computation graph</title>
<polygon fill="white" stroke="transparent" points="-4,4 -4,-1454.48 1385.64,-1454.48 1385.64,4 -4,4"/>
<!-- 0 -->
<g id="node1" class="node">
<title>0</title>
<ellipse fill="none" stroke="black" cx="673.32" cy="-1391.79" rx="118.17" ry="58.88"/>
<text text-anchor="middle" x="673.32" y="-1418.09" font-family="Times New Roman,serif" font-size="14.00">id:0</text>
<text text-anchor="middle" x="673.32" y="-1403.09" font-family="Times New Roman,serif" font-size="14.00">type:&lt;class &#39;Nodes.Root&#39;&gt;</text>
<text text-anchor="middle" x="673.32" y="-1388.09" font-family="Times New Roman,serif" font-size="14.00">area:[]</text>
<text text-anchor="middle" x="673.32" y="-1373.09" font-family="Times New Roman,serif" font-size="14.00">vars:[]</text>
<text text-anchor="middle" x="673.32" y="-1358.09" font-family="Times New Roman,serif" font-size="14.00">grad:False</text>
</g>
<!-- 1 -->
<g id="node2" class="node">
<title>1</title>
<ellipse fill="none" stroke="black" cx="151.32" cy="-1227.81" rx="151.14" ry="58.88"/>
<text text-anchor="middle" x="151.32" y="-1254.11" font-family="Times New Roman,serif" font-size="14.00">id:1</text>
<text text-anchor="middle" x="151.32" y="-1239.11" font-family="Times New Roman,serif" font-size="14.00">type:&lt;class &#39;Nodes.CreateTensor&#39;&gt;</text>
<text text-anchor="middle" x="151.32" y="-1224.11" font-family="Times New Roman,serif" font-size="14.00">area:[0]</text>
<text text-anchor="middle" x="151.32" y="-1209.11" font-family="Times New Roman,serif" font-size="14.00">vars:[&#39;a&#39;]</text>
<text text-anchor="middle" x="151.32" y="-1194.11" font-family="Times New Roman,serif" font-size="14.00">grad:True</text>
</g>
<!-- 0&#45;&gt;1 -->
<g id="edge4" class="edge">
<title>0&#45;&gt;1</title>
<path fill="none" stroke="green" d="M565.55,-1367.38C492.91,-1350.51 395.35,-1325.73 311.32,-1297.1 293.95,-1291.19 275.82,-1284.23 258.26,-1277.07"/>
<polygon fill="green" stroke="green" points="259.15,-1273.65 248.57,-1273.07 256.48,-1280.12 259.15,-1273.65"/>
</g>
<!-- 2 -->
<g id="node3" class="node">
<title>2</title>
<ellipse fill="none" stroke="black" cx="438.32" cy="-1227.81" rx="118.17" ry="69.09"/>
<text text-anchor="middle" x="438.32" y="-1261.61" font-family="Times New Roman,serif" font-size="14.00">id:2</text>
<text text-anchor="middle" x="438.32" y="-1246.61" font-family="Times New Roman,serif" font-size="14.00">type:&lt;class &#39;Nodes.Ones&#39;&gt;</text>
<text text-anchor="middle" x="438.32" y="-1231.61" font-family="Times New Roman,serif" font-size="14.00">area:[0]</text>
<text text-anchor="middle" x="438.32" y="-1216.61" font-family="Times New Roman,serif" font-size="14.00">vars:[&#39;_2&#39;]</text>
<text text-anchor="middle" x="438.32" y="-1201.61" font-family="Times New Roman,serif" font-size="14.00">grad:True</text>
<text text-anchor="middle" x="438.32" y="-1186.61" font-family="Times New Roman,serif" font-size="14.00">data_shape:(3, 3)</text>
</g>
<!-- 0&#45;&gt;2 -->
<g id="edge3" class="edge">
<title>0&#45;&gt;2</title>
<path fill="none" stroke="green" d="M605.03,-1343.72C579.24,-1325.95 549.59,-1305.51 522.51,-1286.84"/>
<polygon fill="green" stroke="green" points="524.42,-1283.9 514.2,-1281.11 520.45,-1289.67 524.42,-1283.9"/>
</g>
<!-- 4 -->
<g id="node5" class="node">
<title>4</title>
<ellipse fill="none" stroke="black" cx="763.32" cy="-1227.81" rx="151.14" ry="58.88"/>
<text text-anchor="middle" x="763.32" y="-1254.11" font-family="Times New Roman,serif" font-size="14.00">id:4</text>
<text text-anchor="middle" x="763.32" y="-1239.11" font-family="Times New Roman,serif" font-size="14.00">type:&lt;class &#39;Nodes.CreateTensor&#39;&gt;</text>
<text text-anchor="middle" x="763.32" y="-1224.11" font-family="Times New Roman,serif" font-size="14.00">area:[0]</text>
<text text-anchor="middle" x="763.32" y="-1209.11" font-family="Times New Roman,serif" font-size="14.00">vars:[&#39;b&#39;]</text>
<text text-anchor="middle" x="763.32" y="-1194.11" font-family="Times New Roman,serif" font-size="14.00">grad:True</text>
</g>
<!-- 0&#45;&gt;4 -->
<g id="edge8" class="edge">
<title>0&#45;&gt;4</title>
<path fill="none" stroke="green" d="M704.29,-1335.05C711.59,-1321.91 719.44,-1307.79 726.95,-1294.26"/>
<polygon fill="green" stroke="green" points="730.04,-1295.92 731.83,-1285.48 723.92,-1292.52 730.04,-1295.92"/>
</g>
<!-- 5 -->
<g id="node6" class="node">
<title>5</title>
<ellipse fill="none" stroke="black" cx="1050.32" cy="-1227.81" rx="118.17" ry="69.09"/>
<text text-anchor="middle" x="1050.32" y="-1261.61" font-family="Times New Roman,serif" font-size="14.00">id:5</text>
<text text-anchor="middle" x="1050.32" y="-1246.61" font-family="Times New Roman,serif" font-size="14.00">type:&lt;class &#39;Nodes.Ones&#39;&gt;</text>
<text text-anchor="middle" x="1050.32" y="-1231.61" font-family="Times New Roman,serif" font-size="14.00">area:[0]</text>
<text text-anchor="middle" x="1050.32" y="-1216.61" font-family="Times New Roman,serif" font-size="14.00">vars:[&#39;_5&#39;]</text>
<text text-anchor="middle" x="1050.32" y="-1201.61" font-family="Times New Roman,serif" font-size="14.00">grad:True</text>
<text text-anchor="middle" x="1050.32" y="-1186.61" font-family="Times New Roman,serif" font-size="14.00">data_shape:(3, 3)</text>
</g>
<!-- 0&#45;&gt;5 -->
<g id="edge7" class="edge">
<title>0&#45;&gt;5</title>
<path fill="none" stroke="green" d="M770.12,-1357.96C816.99,-1341.19 873.73,-1319.61 923.32,-1297.1 934.29,-1292.12 945.63,-1286.6 956.81,-1280.92"/>
<polygon fill="green" stroke="green" points="958.43,-1284.02 965.72,-1276.33 955.23,-1277.8 958.43,-1284.02"/>
</g>
<!-- 7 -->
<g id="node8" class="node">
<title>7</title>
<ellipse fill="none" stroke="black" cx="566.32" cy="-1042.61" rx="111.03" ry="58.88"/>
<text text-anchor="middle" x="566.32" y="-1068.91" font-family="Times New Roman,serif" font-size="14.00">id:7</text>
<text text-anchor="middle" x="566.32" y="-1053.91" font-family="Times New Roman,serif" font-size="14.00">type:&lt;class &#39;Nodes.Val&#39;&gt;</text>
<text text-anchor="middle" x="566.32" y="-1038.91" font-family="Times New Roman,serif" font-size="14.00">area:[0]</text>
<text text-anchor="middle" x="566.32" y="-1023.91" font-family="Times New Roman,serif" font-size="14.00">vars:[&#39;_7&#39;]</text>
<text text-anchor="middle" x="566.32" y="-1008.91" font-family="Times New Roman,serif" font-size="14.00">grad:False</text>
</g>
<!-- 0&#45;&gt;7 -->
<g id="edge13" class="edge">
<title>0&#45;&gt;7</title>
<path fill="none" stroke="green" d="M626.58,-1337.61C617.58,-1325.03 609.16,-1311.17 603.32,-1297.1 578.59,-1237.51 570.01,-1164.04 567.21,-1111.57"/>
<polygon fill="green" stroke="green" points="570.7,-1111.19 566.73,-1101.37 563.71,-1111.52 570.7,-1111.19"/>
</g>
<!-- 12 -->
<g id="node13" class="node">
<title>12</title>
<ellipse fill="none" stroke="black" cx="1230.32" cy="-561.26" rx="151.14" ry="58.88"/>
<text text-anchor="middle" x="1230.32" y="-587.56" font-family="Times New Roman,serif" font-size="14.00">id:12</text>
<text text-anchor="middle" x="1230.32" y="-572.56" font-family="Times New Roman,serif" font-size="14.00">type:&lt;class &#39;Nodes.CreateTensor&#39;&gt;</text>
<text text-anchor="middle" x="1230.32" y="-557.56" font-family="Times New Roman,serif" font-size="14.00">area:[0]</text>
<text text-anchor="middle" x="1230.32" y="-542.56" font-family="Times New Roman,serif" font-size="14.00">vars:[&#39;c&#39;]</text>
<text text-anchor="middle" x="1230.32" y="-527.56" font-family="Times New Roman,serif" font-size="14.00">grad:False</text>
</g>
<!-- 0&#45;&gt;12 -->
<g id="edge16" class="edge">
<title>0&#45;&gt;12</title>
<path fill="none" stroke="green" d="M790.34,-1383.86C921.73,-1373.6 1123.63,-1349.61 1177.32,-1297.1 1259.61,-1216.63 1230.32,-1158.71 1230.32,-1043.61 1230.32,-1043.61 1230.32,-1043.61 1230.32,-867.01 1230.32,-785.57 1230.32,-691.88 1230.32,-630.12"/>
<polygon fill="green" stroke="green" points="1233.82,-630.11 1230.32,-620.11 1226.82,-630.11 1233.82,-630.11"/>
</g>
<!-- 3 -->
<g id="node4" class="node">
<title>3</title>
<ellipse fill="none" stroke="black" cx="231.32" cy="-1042.61" rx="143.59" ry="79.81"/>
<text text-anchor="middle" x="231.32" y="-1083.91" font-family="Times New Roman,serif" font-size="14.00">id:3</text>
<text text-anchor="middle" x="231.32" y="-1068.91" font-family="Times New Roman,serif" font-size="14.00">type:&lt;class &#39;Nodes.Assignment&#39;&gt;</text>
<text text-anchor="middle" x="231.32" y="-1053.91" font-family="Times New Roman,serif" font-size="14.00">area:[0]</text>
<text text-anchor="middle" x="231.32" y="-1038.91" font-family="Times New Roman,serif" font-size="14.00">vars:[&#39;a&#39;, &#39;_2&#39;]</text>
<text text-anchor="middle" x="231.32" y="-1023.91" font-family="Times New Roman,serif" font-size="14.00">grad:True</text>
<text text-anchor="middle" x="231.32" y="-1008.91" font-family="Times New Roman,serif" font-size="14.00">slice:None</text>
<text text-anchor="middle" x="231.32" y="-993.91" font-family="Times New Roman,serif" font-size="14.00">update:False</text>
</g>
<!-- 1&#45;&gt;3 -->
<g id="edge1" class="edge">
<title>1&#45;&gt;3</title>
<path fill="none" stroke="green" d="M176.19,-1169.85C181.75,-1157.13 187.76,-1143.37 193.7,-1129.77"/>
<polygon fill="green" stroke="green" points="196.99,-1130.96 197.79,-1120.39 190.58,-1128.16 196.99,-1130.96"/>
</g>
<!-- 2&#45;&gt;3 -->
<g id="edge2" class="edge">
<title>2&#45;&gt;3</title>
<path fill="none" stroke="green" d="M373.68,-1169.6C354.95,-1153.02 334.24,-1134.7 314.56,-1117.27"/>
<polygon fill="green" stroke="green" points="316.87,-1114.65 307.07,-1110.64 312.23,-1119.89 316.87,-1114.65"/>
</g>
<!-- 6 -->
<g id="node7" class="node">
<title>6</title>
<ellipse fill="none" stroke="black" cx="930.32" cy="-1042.61" rx="143.59" ry="79.81"/>
<text text-anchor="middle" x="930.32" y="-1083.91" font-family="Times New Roman,serif" font-size="14.00">id:6</text>
<text text-anchor="middle" x="930.32" y="-1068.91" font-family="Times New Roman,serif" font-size="14.00">type:&lt;class &#39;Nodes.Assignment&#39;&gt;</text>
<text text-anchor="middle" x="930.32" y="-1053.91" font-family="Times New Roman,serif" font-size="14.00">area:[0]</text>
<text text-anchor="middle" x="930.32" y="-1038.91" font-family="Times New Roman,serif" font-size="14.00">vars:[&#39;b&#39;, &#39;_5&#39;]</text>
<text text-anchor="middle" x="930.32" y="-1023.91" font-family="Times New Roman,serif" font-size="14.00">grad:True</text>
<text text-anchor="middle" x="930.32" y="-1008.91" font-family="Times New Roman,serif" font-size="14.00">slice:None</text>
<text text-anchor="middle" x="930.32" y="-993.91" font-family="Times New Roman,serif" font-size="14.00">update:False</text>
</g>
<!-- 4&#45;&gt;6 -->
<g id="edge5" class="edge">
<title>4&#45;&gt;6</title>
<path fill="none" stroke="green" d="M812.97,-1172.34C827.4,-1156.51 843.44,-1138.91 858.92,-1121.93"/>
<polygon fill="green" stroke="green" points="861.84,-1123.93 865.99,-1114.18 856.67,-1119.21 861.84,-1123.93"/>
</g>
<!-- 5&#45;&gt;6 -->
<g id="edge6" class="edge">
<title>5&#45;&gt;6</title>
<path fill="none" stroke="green" d="M1008.52,-1162.99C1000.77,-1151.16 992.57,-1138.65 984.52,-1126.35"/>
<polygon fill="green" stroke="green" points="987.38,-1124.33 978.97,-1117.88 981.52,-1128.16 987.38,-1124.33"/>
</g>
<!-- 9 -->
<g id="node10" class="node">
<title>9</title>
<ellipse fill="none" stroke="black" cx="689.32" cy="-868.01" rx="111.95" ry="58.88"/>
<text text-anchor="middle" x="689.32" y="-894.31" font-family="Times New Roman,serif" font-size="14.00">id:9</text>
<text text-anchor="middle" x="689.32" y="-879.31" font-family="Times New Roman,serif" font-size="14.00">type:&lt;class &#39;Nodes.Var&#39;&gt;</text>
<text text-anchor="middle" x="689.32" y="-864.31" font-family="Times New Roman,serif" font-size="14.00">area:[0]</text>
<text text-anchor="middle" x="689.32" y="-849.31" font-family="Times New Roman,serif" font-size="14.00">vars:[&#39;b&#39;]</text>
<text text-anchor="middle" x="689.32" y="-834.31" font-family="Times New Roman,serif" font-size="14.00">grad:True</text>
</g>
<!-- 6&#45;&gt;9 -->
<g id="edge14" class="edge">
<title>6&#45;&gt;9</title>
<path fill="none" stroke="green" d="M842.97,-979.05C816.83,-960.33 788.43,-939.99 763.24,-921.95"/>
<polygon fill="green" stroke="green" points="765,-918.91 754.83,-915.93 760.92,-924.6 765,-918.91"/>
</g>
<!-- 11 -->
<g id="node12" class="node">
<title>11</title>
<ellipse fill="none" stroke="black" cx="1090.32" cy="-714.64" rx="111.95" ry="58.88"/>
<text text-anchor="middle" x="1090.32" y="-740.94" font-family="Times New Roman,serif" font-size="14.00">id:11</text>
<text text-anchor="middle" x="1090.32" y="-725.94" font-family="Times New Roman,serif" font-size="14.00">type:&lt;class &#39;Nodes.Var&#39;&gt;</text>
<text text-anchor="middle" x="1090.32" y="-710.94" font-family="Times New Roman,serif" font-size="14.00">area:[0]</text>
<text text-anchor="middle" x="1090.32" y="-695.94" font-family="Times New Roman,serif" font-size="14.00">vars:[&#39;b&#39;]</text>
<text text-anchor="middle" x="1090.32" y="-680.94" font-family="Times New Roman,serif" font-size="14.00">grad:True</text>
</g>
<!-- 6&#45;&gt;11 -->
<g id="edge15" class="edge">
<title>6&#45;&gt;11</title>
<path fill="none" stroke="green" d="M1012.89,-976.96C1027.65,-961.91 1041.45,-944.91 1051.32,-926.7 1075.17,-882.73 1084.73,-826.84 1088.43,-783.62"/>
<polygon fill="green" stroke="green" points="1091.93,-783.72 1089.21,-773.48 1084.95,-783.18 1091.93,-783.72"/>
</g>
<!-- 15 -->
<g id="node16" class="node">
<title>15</title>
<ellipse fill="none" stroke="black" cx="930.32" cy="-868.01" rx="111.95" ry="58.88"/>
<text text-anchor="middle" x="930.32" y="-894.31" font-family="Times New Roman,serif" font-size="14.00">id:15</text>
<text text-anchor="middle" x="930.32" y="-879.31" font-family="Times New Roman,serif" font-size="14.00">type:&lt;class &#39;Nodes.Var&#39;&gt;</text>
<text text-anchor="middle" x="930.32" y="-864.31" font-family="Times New Roman,serif" font-size="14.00">area:[0]</text>
<text text-anchor="middle" x="930.32" y="-849.31" font-family="Times New Roman,serif" font-size="14.00">vars:[&#39;b&#39;]</text>
<text text-anchor="middle" x="930.32" y="-834.31" font-family="Times New Roman,serif" font-size="14.00">grad:True</text>
</g>
<!-- 6&#45;&gt;15 -->
<g id="edge20" class="edge">
<title>6&#45;&gt;15</title>
<path fill="none" stroke="green" d="M930.32,-962.64C930.32,-954.05 930.32,-945.37 930.32,-936.94"/>
<polygon fill="green" stroke="green" points="933.82,-936.8 930.32,-926.8 926.82,-936.8 933.82,-936.8"/>
</g>
<!-- 8 -->
<g id="node9" class="node">
<title>8</title>
<ellipse fill="none" stroke="black" cx="549.32" cy="-714.64" rx="113.27" ry="58.88"/>
<text text-anchor="middle" x="549.32" y="-740.94" font-family="Times New Roman,serif" font-size="14.00">id:8</text>
<text text-anchor="middle" x="549.32" y="-725.94" font-family="Times New Roman,serif" font-size="14.00">type:&lt;class &#39;Nodes.Mul&#39;&gt;</text>
<text text-anchor="middle" x="549.32" y="-710.94" font-family="Times New Roman,serif" font-size="14.00">area:[0]</text>
<text text-anchor="middle" x="549.32" y="-695.94" font-family="Times New Roman,serif" font-size="14.00">vars:[&#39;_8&#39;, &#39;_7&#39;, &#39;b&#39;]</text>
<text text-anchor="middle" x="549.32" y="-680.94" font-family="Times New Roman,serif" font-size="14.00">grad:True</text>
</g>
<!-- 7&#45;&gt;8 -->
<g id="edge9" class="edge">
<title>7&#45;&gt;8</title>
<path fill="none" stroke="green" d="M563.3,-983.71C560.38,-927.67 555.95,-842.75 552.86,-783.55"/>
<polygon fill="green" stroke="green" points="556.36,-783.35 552.34,-773.55 549.37,-783.71 556.36,-783.35"/>
</g>
<!-- 10 -->
<g id="node11" class="node">
<title>10</title>
<ellipse fill="none" stroke="black" cx="945.32" cy="-561.26" rx="115.02" ry="58.88"/>
<text text-anchor="middle" x="945.32" y="-587.56" font-family="Times New Roman,serif" font-size="14.00">id:10</text>
<text text-anchor="middle" x="945.32" y="-572.56" font-family="Times New Roman,serif" font-size="14.00">type:&lt;class &#39;Nodes.Add&#39;&gt;</text>
<text text-anchor="middle" x="945.32" y="-557.56" font-family="Times New Roman,serif" font-size="14.00">area:[0]</text>
<text text-anchor="middle" x="945.32" y="-542.56" font-family="Times New Roman,serif" font-size="14.00">vars:[&#39;_10&#39;, &#39;_8&#39;, &#39;b&#39;]</text>
<text text-anchor="middle" x="945.32" y="-527.56" font-family="Times New Roman,serif" font-size="14.00">grad:True</text>
</g>
<!-- 8&#45;&gt;10 -->
<g id="edge11" class="edge">
<title>8&#45;&gt;10</title>
<path fill="none" stroke="green" d="M630.46,-673.72C643.99,-667.51 657.97,-661.36 671.32,-655.95 725.48,-633.96 786.95,-612.62 837.93,-595.88"/>
<polygon fill="green" stroke="green" points="839.24,-599.13 847.65,-592.7 837.06,-592.48 839.24,-599.13"/>
</g>
<!-- 9&#45;&gt;8 -->
<g id="edge10" class="edge">
<title>9&#45;&gt;8</title>
<path fill="none" stroke="green" d="M641.14,-814.92C629.37,-802.19 616.69,-788.48 604.62,-775.42"/>
<polygon fill="green" stroke="green" points="606.95,-772.79 597.59,-767.83 601.81,-777.55 606.95,-772.79"/>
</g>
<!-- 13 -->
<g id="node14" class="node">
<title>13</title>
<ellipse fill="none" stroke="black" cx="1087.32" cy="-386.66" rx="143.59" ry="79.81"/>
<text text-anchor="middle" x="1087.32" y="-427.96" font-family="Times New Roman,serif" font-size="14.00">id:13</text>
<text text-anchor="middle" x="1087.32" y="-412.96" font-family="Times New Roman,serif" font-size="14.00">type:&lt;class &#39;Nodes.Assignment&#39;&gt;</text>
<text text-anchor="middle" x="1087.32" y="-397.96" font-family="Times New Roman,serif" font-size="14.00">area:[0]</text>
<text text-anchor="middle" x="1087.32" y="-382.96" font-family="Times New Roman,serif" font-size="14.00">vars:[&#39;c&#39;, &#39;_10&#39;]</text>
<text text-anchor="middle" x="1087.32" y="-367.96" font-family="Times New Roman,serif" font-size="14.00">grad:True</text>
<text text-anchor="middle" x="1087.32" y="-352.96" font-family="Times New Roman,serif" font-size="14.00">slice:None</text>
<text text-anchor="middle" x="1087.32" y="-337.96" font-family="Times New Roman,serif" font-size="14.00">update:False</text>
</g>
<!-- 10&#45;&gt;13 -->
<g id="edge18" class="edge">
<title>10&#45;&gt;13</title>
<path fill="none" stroke="green" d="M989.47,-506.59C999.68,-494.18 1010.76,-480.72 1021.67,-467.46"/>
<polygon fill="green" stroke="green" points="1024.41,-469.64 1028.06,-459.69 1019,-465.19 1024.41,-469.64"/>
</g>
<!-- 11&#45;&gt;10 -->
<g id="edge12" class="edge">
<title>11&#45;&gt;10</title>
<path fill="none" stroke="green" d="M1040.83,-661.96C1028.37,-648.95 1014.89,-634.89 1002.11,-621.54"/>
<polygon fill="green" stroke="green" points="1004.53,-619.01 995.09,-614.21 999.48,-623.85 1004.53,-619.01"/>
</g>
<!-- 12&#45;&gt;13 -->
<g id="edge17" class="edge">
<title>12&#45;&gt;13</title>
<path fill="none" stroke="green" d="M1184.68,-505.17C1174.73,-493.16 1164.01,-480.22 1153.44,-467.47"/>
<polygon fill="green" stroke="green" points="1155.97,-465.03 1146.89,-459.56 1150.58,-469.5 1155.97,-465.03"/>
</g>
<!-- 17 -->
<g id="node18" class="node">
<title>17</title>
<ellipse fill="none" stroke="black" cx="1087.32" cy="-212.07" rx="111.95" ry="58.88"/>
<text text-anchor="middle" x="1087.32" y="-238.37" font-family="Times New Roman,serif" font-size="14.00">id:17</text>
<text text-anchor="middle" x="1087.32" y="-223.37" font-family="Times New Roman,serif" font-size="14.00">type:&lt;class &#39;Nodes.Var&#39;&gt;</text>
<text text-anchor="middle" x="1087.32" y="-208.37" font-family="Times New Roman,serif" font-size="14.00">area:[0]</text>
<text text-anchor="middle" x="1087.32" y="-193.37" font-family="Times New Roman,serif" font-size="14.00">vars:[&#39;c&#39;]</text>
<text text-anchor="middle" x="1087.32" y="-178.37" font-family="Times New Roman,serif" font-size="14.00">grad:True</text>
</g>
<!-- 13&#45;&gt;17 -->
<g id="edge22" class="edge">
<title>13&#45;&gt;17</title>
<path fill="none" stroke="green" d="M1087.32,-306.69C1087.32,-298.11 1087.32,-289.43 1087.32,-280.99"/>
<polygon fill="green" stroke="green" points="1090.82,-280.85 1087.32,-270.85 1083.82,-280.85 1090.82,-280.85"/>
</g>
<!-- 14 -->
<g id="node15" class="node">
<title>14</title>
<ellipse fill="none" stroke="black" cx="820.32" cy="-714.64" rx="140.01" ry="58.88"/>
<text text-anchor="middle" x="820.32" y="-740.94" font-family="Times New Roman,serif" font-size="14.00">id:14</text>
<text text-anchor="middle" x="820.32" y="-725.94" font-family="Times New Roman,serif" font-size="14.00">type:&lt;class &#39;Nodes.CleanGrad&#39;&gt;</text>
<text text-anchor="middle" x="820.32" y="-710.94" font-family="Times New Roman,serif" font-size="14.00">area:[0]</text>
<text text-anchor="middle" x="820.32" y="-695.94" font-family="Times New Roman,serif" font-size="14.00">vars:[&#39;b&#39;]</text>
<text text-anchor="middle" x="820.32" y="-680.94" font-family="Times New Roman,serif" font-size="14.00">grad:True</text>
</g>
<!-- 15&#45;&gt;14 -->
<g id="edge19" class="edge">
<title>15&#45;&gt;14</title>
<path fill="none" stroke="green" d="M890.92,-812.79C883.06,-801.97 874.74,-790.52 866.67,-779.42"/>
<polygon fill="green" stroke="green" points="869.27,-777.04 860.56,-771.01 863.61,-781.16 869.27,-777.04"/>
</g>
<!-- 16 -->
<g id="node17" class="node">
<title>16</title>
<ellipse fill="none" stroke="black" cx="1087.32" cy="-58.69" rx="137.36" ry="58.88"/>
<text text-anchor="middle" x="1087.32" y="-84.99" font-family="Times New Roman,serif" font-size="14.00">id:16</text>
<text text-anchor="middle" x="1087.32" y="-69.99" font-family="Times New Roman,serif" font-size="14.00">type:&lt;class &#39;Nodes.Backward&#39;&gt;</text>
<text text-anchor="middle" x="1087.32" y="-54.99" font-family="Times New Roman,serif" font-size="14.00">area:[0]</text>
<text text-anchor="middle" x="1087.32" y="-39.99" font-family="Times New Roman,serif" font-size="14.00">vars:[&#39;c&#39;]</text>
<text text-anchor="middle" x="1087.32" y="-24.99" font-family="Times New Roman,serif" font-size="14.00">grad:True</text>
</g>
<!-- 17&#45;&gt;16 -->
<g id="edge21" class="edge">
<title>17&#45;&gt;16</title>
<path fill="none" stroke="green" d="M1087.32,-152.98C1087.32,-144.74 1087.32,-136.2 1087.32,-127.79"/>
<polygon fill="green" stroke="green" points="1090.82,-127.63 1087.32,-117.63 1083.82,-127.63 1090.82,-127.63"/>
</g>
</g>
</svg>
