<?xml version="1.0" encoding="UTF-8" standalone="no"?>
<!DOCTYPE svg PUBLIC "-//W3C//DTD SVG 1.1//EN"
 "http://www.w3.org/Graphics/SVG/1.1/DTD/svg11.dtd">
<!-- Generated by graphviz version 2.47.0 (20210316.0004)
 -->
<!-- Title: computation graph Pages: 1 -->
<svg width="550pt" height="496pt"
 viewBox="0.00 0.00 550.34 495.78" xmlns="http://www.w3.org/2000/svg" xmlns:xlink="http://www.w3.org/1999/xlink">
<g id="graph0" class="graph" transform="scale(1 1) rotate(0) translate(4 491.78)">
<title>computation graph</title>
<polygon fill="white" stroke="transparent" points="-4,4 -4,-491.78 546.34,-491.78 546.34,4 -4,4"/>
<!-- 0 -->
<g id="node1" class="node">
<title>0</title>
<ellipse fill="none" stroke="black" cx="291.32" cy="-429.09" rx="118.17" ry="58.88"/>
<text text-anchor="middle" x="291.32" y="-455.39" font-family="Times New Roman,serif" font-size="14.00">id:0</text>
<text text-anchor="middle" x="291.32" y="-440.39" font-family="Times New Roman,serif" font-size="14.00">type:&lt;class &#39;Nodes.Root&#39;&gt;</text>
<text text-anchor="middle" x="291.32" y="-425.39" font-family="Times New Roman,serif" font-size="14.00">area:[]</text>
<text text-anchor="middle" x="291.32" y="-410.39" font-family="Times New Roman,serif" font-size="14.00">vars:[]</text>
<text text-anchor="middle" x="291.32" y="-395.39" font-family="Times New Roman,serif" font-size="14.00">grad:False</text>
</g>
<!-- 1 -->
<g id="node2" class="node">
<title>1</title>
<ellipse fill="none" stroke="black" cx="151.32" cy="-265.1" rx="151.14" ry="58.88"/>
<text text-anchor="middle" x="151.32" y="-291.4" font-family="Times New Roman,serif" font-size="14.00">id:1</text>
<text text-anchor="middle" x="151.32" y="-276.4" font-family="Times New Roman,serif" font-size="14.00">type:&lt;class &#39;Nodes.CreateTensor&#39;&gt;</text>
<text text-anchor="middle" x="151.32" y="-261.4" font-family="Times New Roman,serif" font-size="14.00">area:[0]</text>
<text text-anchor="middle" x="151.32" y="-246.4" font-family="Times New Roman,serif" font-size="14.00">vars:[&#39;x&#39;]</text>
<text text-anchor="middle" x="151.32" y="-231.4" font-family="Times New Roman,serif" font-size="14.00">grad:False</text>
</g>
<!-- 0&#45;&gt;1 -->
<g id="edge4" class="edge">
<title>0&#45;&gt;1</title>
<path fill="none" stroke="green" d="M245.09,-374.6C232.41,-359.92 218.54,-343.88 205.46,-328.74"/>
<polygon fill="green" stroke="green" points="207.89,-326.2 198.7,-320.92 202.59,-330.78 207.89,-326.2"/>
</g>
<!-- 2 -->
<g id="node3" class="node">
<title>2</title>
<ellipse fill="none" stroke="black" cx="431.32" cy="-265.1" rx="111.03" ry="69.09"/>
<text text-anchor="middle" x="431.32" y="-298.9" font-family="Times New Roman,serif" font-size="14.00">id:2</text>
<text text-anchor="middle" x="431.32" y="-283.9" font-family="Times New Roman,serif" font-size="14.00">type:&lt;class &#39;Nodes.Sql&#39;&gt;</text>
<text text-anchor="middle" x="431.32" y="-268.9" font-family="Times New Roman,serif" font-size="14.00">area:[0]</text>
<text text-anchor="middle" x="431.32" y="-253.9" font-family="Times New Roman,serif" font-size="14.00">vars:[&#39;_2&#39;]</text>
<text text-anchor="middle" x="431.32" y="-238.9" font-family="Times New Roman,serif" font-size="14.00">grad:False</text>
<text text-anchor="middle" x="431.32" y="-223.9" font-family="Times New Roman,serif" font-size="14.00">sql:SQL</text>
</g>
<!-- 0&#45;&gt;2 -->
<g id="edge3" class="edge">
<title>0&#45;&gt;2</title>
<path fill="none" stroke="green" d="M337.55,-374.6C348.67,-361.73 360.7,-347.82 372.31,-334.38"/>
<polygon fill="green" stroke="green" points="375.2,-336.39 379.09,-326.54 369.9,-331.82 375.2,-336.39"/>
</g>
<!-- 3 -->
<g id="node4" class="node">
<title>3</title>
<ellipse fill="none" stroke="black" cx="291.32" cy="-79.9" rx="143.59" ry="79.81"/>
<text text-anchor="middle" x="291.32" y="-121.2" font-family="Times New Roman,serif" font-size="14.00">id:3</text>
<text text-anchor="middle" x="291.32" y="-106.2" font-family="Times New Roman,serif" font-size="14.00">type:&lt;class &#39;Nodes.Assignment&#39;&gt;</text>
<text text-anchor="middle" x="291.32" y="-91.2" font-family="Times New Roman,serif" font-size="14.00">area:[0]</text>
<text text-anchor="middle" x="291.32" y="-76.2" font-family="Times New Roman,serif" font-size="14.00">vars:[&#39;x&#39;, &#39;_2&#39;]</text>
<text text-anchor="middle" x="291.32" y="-61.2" font-family="Times New Roman,serif" font-size="14.00">grad:False</text>
<text text-anchor="middle" x="291.32" y="-46.2" font-family="Times New Roman,serif" font-size="14.00">slice:None</text>
<text text-anchor="middle" x="291.32" y="-31.2" font-family="Times New Roman,serif" font-size="14.00">update:False</text>
</g>
<!-- 1&#45;&gt;3 -->
<g id="edge1" class="edge">
<title>1&#45;&gt;3</title>
<path fill="none" stroke="green" d="M193.71,-208.64C204.94,-193.93 217.32,-177.74 229.36,-161.98"/>
<polygon fill="green" stroke="green" points="232.34,-163.85 235.63,-153.78 226.77,-159.6 232.34,-163.85"/>
</g>
<!-- 2&#45;&gt;3 -->
<g id="edge2" class="edge">
<title>2&#45;&gt;3</title>
<path fill="none" stroke="green" d="M384.12,-202.33C374.16,-189.31 363.52,-175.38 353.12,-161.77"/>
<polygon fill="green" stroke="green" points="355.89,-159.63 347.03,-153.81 350.32,-163.88 355.89,-159.63"/>
</g>
</g>
</svg>
