<?xml version="1.0" encoding="UTF-8" standalone="no"?>
<!DOCTYPE svg PUBLIC "-//W3C//DTD SVG 1.1//EN"
 "http://www.w3.org/Graphics/SVG/1.1/DTD/svg11.dtd">
<!-- Generated by graphviz version 2.47.0 (20210316.0004)
 -->
<!-- Title: computation graph Pages: 1 -->
<svg width="729pt" height="977pt"
 viewBox="0.00 0.00 729.34 977.13" xmlns="http://www.w3.org/2000/svg" xmlns:xlink="http://www.w3.org/1999/xlink">
<g id="graph0" class="graph" transform="scale(1 1) rotate(0) translate(4 973.13)">
<title>computation graph</title>
<polygon fill="white" stroke="transparent" points="-4,4 -4,-973.13 725.34,-973.13 725.34,4 -4,4"/>
<!-- 0 -->
<g id="node1" class="node">
<title>0</title>
<ellipse fill="none" stroke="black" cx="391.02" cy="-910.44" rx="118.17" ry="58.88"/>
<text text-anchor="middle" x="391.02" y="-936.74" font-family="Times New Roman,serif" font-size="14.00">id:0</text>
<text text-anchor="middle" x="391.02" y="-921.74" font-family="Times New Roman,serif" font-size="14.00">type:&lt;class &#39;Nodes.Root&#39;&gt;</text>
<text text-anchor="middle" x="391.02" y="-906.74" font-family="Times New Roman,serif" font-size="14.00">area:[]</text>
<text text-anchor="middle" x="391.02" y="-891.74" font-family="Times New Roman,serif" font-size="14.00">vars:[]</text>
<text text-anchor="middle" x="391.02" y="-876.74" font-family="Times New Roman,serif" font-size="14.00">grad:False</text>
</g>
<!-- 1 -->
<g id="node2" class="node">
<title>1</title>
<ellipse fill="none" stroke="black" cx="111.02" cy="-757.06" rx="111.03" ry="58.88"/>
<text text-anchor="middle" x="111.02" y="-783.36" font-family="Times New Roman,serif" font-size="14.00">id:1</text>
<text text-anchor="middle" x="111.02" y="-768.36" font-family="Times New Roman,serif" font-size="14.00">type:&lt;class &#39;Nodes.Val&#39;&gt;</text>
<text text-anchor="middle" x="111.02" y="-753.36" font-family="Times New Roman,serif" font-size="14.00">area:[0]</text>
<text text-anchor="middle" x="111.02" y="-738.36" font-family="Times New Roman,serif" font-size="14.00">vars:[&#39;_1&#39;]</text>
<text text-anchor="middle" x="111.02" y="-723.36" font-family="Times New Roman,serif" font-size="14.00">grad:False</text>
</g>
<!-- 0&#45;&gt;1 -->
<g id="edge1" class="edge">
<title>0&#45;&gt;1</title>
<path fill="none" stroke="green" d="M311.9,-866.67C276.12,-847.32 233.75,-824.42 197.17,-804.64"/>
<polygon fill="green" stroke="green" points="198.46,-801.36 188,-799.68 195.13,-807.52 198.46,-801.36"/>
</g>
<!-- 2 -->
<g id="node3" class="node">
<title>2</title>
<ellipse fill="none" stroke="black" cx="391.02" cy="-757.06" rx="151.14" ry="58.88"/>
<text text-anchor="middle" x="391.02" y="-783.36" font-family="Times New Roman,serif" font-size="14.00">id:2</text>
<text text-anchor="middle" x="391.02" y="-768.36" font-family="Times New Roman,serif" font-size="14.00">type:&lt;class &#39;Nodes.CreateTensor&#39;&gt;</text>
<text text-anchor="middle" x="391.02" y="-753.36" font-family="Times New Roman,serif" font-size="14.00">area:[0]</text>
<text text-anchor="middle" x="391.02" y="-738.36" font-family="Times New Roman,serif" font-size="14.00">vars:[&#39;a&#39;]</text>
<text text-anchor="middle" x="391.02" y="-723.36" font-family="Times New Roman,serif" font-size="14.00">grad:False</text>
</g>
<!-- 0&#45;&gt;2 -->
<g id="edge2" class="edge">
<title>0&#45;&gt;2</title>
<path fill="none" stroke="green" d="M391.02,-851.35C391.02,-843.11 391.02,-834.57 391.02,-826.17"/>
<polygon fill="green" stroke="green" points="394.52,-826 391.02,-816 387.52,-826 394.52,-826"/>
</g>
<!-- 6 -->
<g id="node7" class="node">
<title>6</title>
<ellipse fill="none" stroke="black" cx="570.02" cy="-582.47" rx="151.14" ry="58.88"/>
<text text-anchor="middle" x="570.02" y="-608.77" font-family="Times New Roman,serif" font-size="14.00">id:6</text>
<text text-anchor="middle" x="570.02" y="-593.77" font-family="Times New Roman,serif" font-size="14.00">type:&lt;class &#39;Nodes.CreateTensor&#39;&gt;</text>
<text text-anchor="middle" x="570.02" y="-578.77" font-family="Times New Roman,serif" font-size="14.00">area:[0]</text>
<text text-anchor="middle" x="570.02" y="-563.77" font-family="Times New Roman,serif" font-size="14.00">vars:[&#39;c&#39;]</text>
<text text-anchor="middle" x="570.02" y="-548.77" font-family="Times New Roman,serif" font-size="14.00">grad:False</text>
</g>
<!-- 0&#45;&gt;6 -->
<g id="edge7" class="edge">
<title>0&#45;&gt;6</title>
<path fill="none" stroke="green" d="M484.47,-874.22C510.15,-859.97 535.25,-840.82 551.02,-815.75 581.68,-766.99 584.11,-700.62 580.23,-651.31"/>
<polygon fill="green" stroke="green" points="583.69,-650.71 579.32,-641.06 576.72,-651.33 583.69,-650.71"/>
</g>
<!-- 3 -->
<g id="node4" class="node">
<title>3</title>
<ellipse fill="none" stroke="black" cx="257.02" cy="-582.47" rx="143.59" ry="79.81"/>
<text text-anchor="middle" x="257.02" y="-623.77" font-family="Times New Roman,serif" font-size="14.00">id:3</text>
<text text-anchor="middle" x="257.02" y="-608.77" font-family="Times New Roman,serif" font-size="14.00">type:&lt;class &#39;Nodes.Assignment&#39;&gt;</text>
<text text-anchor="middle" x="257.02" y="-593.77" font-family="Times New Roman,serif" font-size="14.00">area:[0]</text>
<text text-anchor="middle" x="257.02" y="-578.77" font-family="Times New Roman,serif" font-size="14.00">vars:[&#39;a&#39;, &#39;_1&#39;]</text>
<text text-anchor="middle" x="257.02" y="-563.77" font-family="Times New Roman,serif" font-size="14.00">grad:False</text>
<text text-anchor="middle" x="257.02" y="-548.77" font-family="Times New Roman,serif" font-size="14.00">slice:None</text>
<text text-anchor="middle" x="257.02" y="-533.77" font-family="Times New Roman,serif" font-size="14.00">update:False</text>
</g>
<!-- 1&#45;&gt;3 -->
<g id="edge4" class="edge">
<title>1&#45;&gt;3</title>
<path fill="none" stroke="green" d="M156.01,-702.87C166.66,-690.28 178.24,-676.59 189.64,-663.12"/>
<polygon fill="green" stroke="green" points="192.53,-665.11 196.32,-655.22 187.19,-660.59 192.53,-665.11"/>
</g>
<!-- 2&#45;&gt;3 -->
<g id="edge3" class="edge">
<title>2&#45;&gt;3</title>
<path fill="none" stroke="green" d="M347.88,-700.5C338.9,-688.94 329.27,-676.54 319.76,-664.28"/>
<polygon fill="green" stroke="green" points="322.42,-662.01 313.53,-656.26 316.89,-666.3 322.42,-662.01"/>
</g>
<!-- 5 -->
<g id="node5" class="node">
<title>5</title>
<ellipse fill="none" stroke="black" cx="341.02" cy="-407.88" rx="111.95" ry="58.88"/>
<text text-anchor="middle" x="341.02" y="-434.18" font-family="Times New Roman,serif" font-size="14.00">id:5</text>
<text text-anchor="middle" x="341.02" y="-419.18" font-family="Times New Roman,serif" font-size="14.00">type:&lt;class &#39;Nodes.Var&#39;&gt;</text>
<text text-anchor="middle" x="341.02" y="-404.18" font-family="Times New Roman,serif" font-size="14.00">area:[0]</text>
<text text-anchor="middle" x="341.02" y="-389.18" font-family="Times New Roman,serif" font-size="14.00">vars:[&#39;a&#39;]</text>
<text text-anchor="middle" x="341.02" y="-374.18" font-family="Times New Roman,serif" font-size="14.00">grad:False</text>
</g>
<!-- 3&#45;&gt;5 -->
<g id="edge6" class="edge">
<title>3&#45;&gt;5</title>
<path fill="none" stroke="green" d="M294.1,-505.26C299.15,-494.89 304.29,-484.33 309.24,-474.17"/>
<polygon fill="green" stroke="green" points="312.48,-475.5 313.71,-464.98 306.19,-472.44 312.48,-475.5"/>
</g>
<!-- 4 -->
<g id="node6" class="node">
<title>4</title>
<ellipse fill="none" stroke="black" cx="383.02" cy="-254.5" rx="116.85" ry="58.88"/>
<text text-anchor="middle" x="383.02" y="-280.8" font-family="Times New Roman,serif" font-size="14.00">id:4</text>
<text text-anchor="middle" x="383.02" y="-265.8" font-family="Times New Roman,serif" font-size="14.00">type:&lt;class &#39;Nodes.Slice&#39;&gt;</text>
<text text-anchor="middle" x="383.02" y="-250.8" font-family="Times New Roman,serif" font-size="14.00">area:[0]</text>
<text text-anchor="middle" x="383.02" y="-235.8" font-family="Times New Roman,serif" font-size="14.00">vars:[&#39;_4&#39;, &#39;a&#39;]</text>
<text text-anchor="middle" x="383.02" y="-220.8" font-family="Times New Roman,serif" font-size="14.00">grad:False</text>
</g>
<!-- 5&#45;&gt;4 -->
<g id="edge5" class="edge">
<title>5&#45;&gt;4</title>
<path fill="none" stroke="green" d="M356.89,-349.65C359.35,-340.79 361.91,-331.58 364.42,-322.53"/>
<polygon fill="green" stroke="green" points="367.81,-323.38 367.11,-312.81 361.07,-321.51 367.81,-323.38"/>
</g>
<!-- 7 -->
<g id="node8" class="node">
<title>7</title>
<ellipse fill="none" stroke="black" cx="455.02" cy="-79.9" rx="143.59" ry="79.81"/>
<text text-anchor="middle" x="455.02" y="-121.2" font-family="Times New Roman,serif" font-size="14.00">id:7</text>
<text text-anchor="middle" x="455.02" y="-106.2" font-family="Times New Roman,serif" font-size="14.00">type:&lt;class &#39;Nodes.Assignment&#39;&gt;</text>
<text text-anchor="middle" x="455.02" y="-91.2" font-family="Times New Roman,serif" font-size="14.00">area:[0]</text>
<text text-anchor="middle" x="455.02" y="-76.2" font-family="Times New Roman,serif" font-size="14.00">vars:[&#39;c&#39;, &#39;_4&#39;]</text>
<text text-anchor="middle" x="455.02" y="-61.2" font-family="Times New Roman,serif" font-size="14.00">grad:False</text>
<text text-anchor="middle" x="455.02" y="-46.2" font-family="Times New Roman,serif" font-size="14.00">slice:None</text>
<text text-anchor="middle" x="455.02" y="-31.2" font-family="Times New Roman,serif" font-size="14.00">update:False</text>
</g>
<!-- 4&#45;&gt;7 -->
<g id="edge9" class="edge">
<title>4&#45;&gt;7</title>
<path fill="none" stroke="green" d="M406.59,-196.98C410.58,-187.42 414.8,-177.31 419.02,-167.19"/>
<polygon fill="green" stroke="green" points="422.27,-168.5 422.89,-157.92 415.81,-165.8 422.27,-168.5"/>
</g>
<!-- 6&#45;&gt;7 -->
<g id="edge8" class="edge">
<title>6&#45;&gt;7</title>
<path fill="none" stroke="green" d="M565.97,-523.47C559.48,-446.99 543.76,-308.88 509.02,-195.81 506.02,-186.07 502.35,-176.1 498.34,-166.3"/>
<polygon fill="green" stroke="green" points="501.52,-164.82 494.41,-156.97 495.07,-167.55 501.52,-164.82"/>
</g>
</g>
</svg>
